<svg xmlns="http://www.w3.org/2000/svg" width="68.207" height="67.191" viewBox="0 0 68.207 67.191">
  <g id="Group_6" data-name="Group 6" transform="translate(49.911 76.235) rotate(-159)">
    <path id="Path_1" data-name="Path 1" d="M25.733,13.848l-.066-.158-.029-.077-.026-.051c-.051-.125-.106-.249-.157-.373l0-.018-.015-.018c-.066-.15-.132-.3-.2-.447-.015-.066-.022-.114-.007-.128-.048-.074-.026.022-.033.036l-.015-.03-.1-.281-.026.011c-.329-.7-.692-1.377-1.076-2.04a1.615,1.615,0,0,0-.084-.234c-.352-.5-.915-1.4-1.175-1.688-.344-.476-.71-.941-1.095-1.388-.037-.092-.044-.154-.015-.179.139.205.414.622.512.637a4.489,4.489,0,0,1-.373-.6c-.231-.139.289.37.011.161a1.332,1.332,0,0,1-.179-.279c.048.114-.146-.077-.2-.1-.384-.414-.63-.626-1.069-1.04L20.3,5.558c-.092-.084-.179-.172-.275-.257-.114-.172-.19-.329-.114-.308-.256-.238-.293-.22-.509-.424.418.241-.077-.048-.066-.143-.227-.2-.106-.037-.227-.11-.033-.04-.106-.139-.1-.161-.161-.059.1.26.015.286-.117-.1-.238-.191-.363-.282l.022-.026-.07-.052,0,.037c-.117-.091-.234-.183-.359-.271a.326.326,0,0,1,.33-.114c.011-.051-.256-.135-.373-.2-.363-.154-.45-.388-.736-.535.059.055.121.11.179.169a2.736,2.736,0,0,1-.483-.352c-.026.019.128.249-.011.2-.491-.3-.882-.7-.813-.751.242.172.48.348.71.527.066-.044-.5-.384-.425-.436-.234-.135-.476-.26-.718-.388.088.055.352.227.227.2A1.116,1.116,0,0,0,15.755,2c.154.136.359.341.549.542l.081.092c-.2-.117-.4-.231-.6-.344-.157-.187-.267-.355-.319-.421-.286-.135-.256.048-.2.106a1.876,1.876,0,0,1-.5-.362,1.356,1.356,0,0,0-.52-.341l.227.066a5.973,5.973,0,0,1-.568-.264c-.132-.011-.271.033-.154.106L13.287.853c.07.044-.022.132,0,.164C13.085.94,12.983.765,13.122.79a4.16,4.16,0,0,0-.685-.084c-.121-.044.048-.117.143-.1A2.5,2.5,0,0,0,12,.432c.311.128.216.216.15.3C12.045.7,11.939.666,11.829.637c-.2-.132-.407-.264-.619-.392a.329.329,0,0,1,.077.164,1.821,1.821,0,0,0-.707-.226,7.237,7.237,0,0,0-1.1-.121l.088,0C9.654.1,9.372.1,9.145.087c-.381.077-.5-.168-.893-.058.359-.029.428.026.41.066A2.61,2.61,0,0,0,8.391.077l-.3.011c-.19,0-.326-.011-.26-.077-.187.036-.355.047-.333.106-.242.011-.48,0-.732.033.059,0,.11.026-.1.08A2.275,2.275,0,0,1,7.241.168,1.145,1.145,0,0,0,7.67.1c.015.074-.128.128.066.176-.19.007-.359.019-.516.019s-.3,0-.436,0a2.65,2.65,0,0,0-.4.029,1.883,1.883,0,0,0-.381.066A2.723,2.723,0,0,0,5.7.582a2.391,2.391,0,0,0-.289.224L5.363.794,5.319.94a.325.325,0,0,0-.143.085c-.007.018.015.011.051,0-.059.048-.114.092-.143.11.011.051.139,0,.264-.051.037-.051.077-.1.117-.154C5.546.9,5.612.882,5.626.9a2.254,2.254,0,0,0-.209.157l-.07.022-.033.051L5.363,1.1,5.3,1.16l.018-.03-.205.14c-.066.044-.117.091-.165.117-.088.059-.128.059-.051-.08l-.114.179-.088.194a1.505,1.505,0,0,0-.172.227c-.037.058-.069.106-.1.16s-.048.11-.081.191L4.286,2.4c-.018.055-.029.121-.051.2.026.04.073-.121.081-.007a.82.82,0,0,0-.048.359,1.22,1.22,0,0,0,.059.355c.059.223.143.381.117.44.084.341-.029.165.037.384,0-.015.015-.04.04.018.018.088.033.183.059.271.073.084-.081-.234.091.014a5.514,5.514,0,0,0,.59,1.033c.293.49-.234-.136.033.264.081.029.165.051.333.3l.029.092,0,.059a.19.19,0,0,0-.011.066l.088-.011a.3.3,0,0,0,.157.172.1.1,0,0,0,.018.073l.007.018H5.9l-.022,0a.273.273,0,0,1-.165-.125.5.5,0,0,0-.084-.07l-.073-.048.062.044,0,.018,0,.073.121.037a.156.156,0,0,1-.117.011.244.244,0,0,1-.088-.037l-.026-.015L5.44,6.382a.522.522,0,0,0-.2.037c.059.007.124.018.179.029l.084.018.033.014c.04.022.073.048.033.063-.051-.019-.183-.052-.3-.081-.044.015.2.04.033.044-.1-.029-.293-.1-.377-.136l0,0-.626-.1c.117.015.143.044.022.033l-.406-.1c.124.037-.007.044-.194.033-.542-.044-.414-.231-.857-.179.062,0,.073.011.139.014a2.18,2.18,0,0,0-.227.026c-.022-.084-.363-.1-.718-.047s-.707.2-.769.143c-.154.117-.15.132-.059.092a1.761,1.761,0,0,1,.516-.139,2.917,2.917,0,0,0-.337.172l.2-.081a1.67,1.67,0,0,1,.216-.055c-.223.092-.439.183-.63.275a2.91,2.91,0,0,0-.458.282c-.059.077-.007.07,0,.092S.738,6.9.577,7.1C.17,7.7.54,6.92.3,7.283.277,7.4.247,7.5.236,7.612a1.732,1.732,0,0,0-.227.732,2.652,2.652,0,0,0,.037.7,1.337,1.337,0,0,1,.007.187,4.413,4.413,0,0,0,.494,1.318c-.033-.081.157.143.2.165l.308.534C.918,11.017.965,11,.976,10.93c.106.161.136.249.205.359-.029-.073-.062-.15.015-.081l.3.575a.987.987,0,0,1-.11-.135,4.6,4.6,0,0,0,.436.6c0-.026-.026-.1-.022-.128a.575.575,0,0,1-.212-.344c.253.362.073.08.227.234.183.256.205.4.124.355a3.774,3.774,0,0,1,.48.678l.011-.1.183.278-.1-.264c.417.484-.022.165.436.7l.051-.033c.15.227.128.363.315.487.139.231-.348-.3.033.19a3.5,3.5,0,0,1,.381.37c.092.142-.081-.011-.179-.125.531.666.494.289.97.956-.22-.19.073.256-.373-.26.187.271.483.428.666.721l-.1-.216a2.1,2.1,0,0,1,.194.267l.026-.059c.209.378.564.539.644.806-.044-.2.212.231.366.318-.2-.293-.7-.707-.659-.809.132.1.2.234.326.326a1.426,1.426,0,0,1-.168-.264,5.6,5.6,0,0,1,.751.875c-.128-.135-.26-.271-.388-.414-.037.1.168.194.231.359.238.164.352.369.542.5-.044-.04-.044-.051-.088-.092a4.42,4.42,0,0,0,.879.575c.194.143.513.476.359.4.135.15-.615-.545-.425-.223.37.11.516.52,1.2.9-.242-.245.2.055-.011-.158a1.783,1.783,0,0,1,.392.385l.117.026a2.634,2.634,0,0,0,.615.589c-.092-.08-.022-.054.055-.022s.158.059.088,0a2.781,2.781,0,0,1,.447.315l-.018-.018a3.074,3.074,0,0,0,.582.318,3.382,3.382,0,0,1,.538.293l-.07-.007a12.936,12.936,0,0,0,2.691,1.124l-.319-.077c.051.011.194.066.362.124a2.485,2.485,0,0,0,.513.117,1.457,1.457,0,0,0-.2-.058c.015-.03.135-.047.351,0l.073.066.091-.015c.33.074-.11.044.22.114a2.591,2.591,0,0,1,.835.066,3.393,3.393,0,0,0,.9.025c.22.117-.63-.044-.392.066a2.567,2.567,0,0,1,.37-.008l-.081.051a5.726,5.726,0,0,0,.666,0l.531-.011c.337-.033.659-.047,1.11-.08l-.037-.008a1.622,1.622,0,0,1,.637-.037c.062-.036-.169-.022-.048-.058a1.7,1.7,0,0,0,.809-.117,1.967,1.967,0,0,1,.633-.143c-.029-.048.084-.128.194-.205.231-.054.465-.117.7-.182C25.286,20.7,27.241,17.543,25.733,13.848ZM5.875,6.5c-.029.015-.051.044-.161-.04C5.7,6.426,5.809,6.481,5.875,6.5ZM5.846.622a1.5,1.5,0,0,1-.26.168A.781.781,0,0,1,5.846.622Z" transform="translate(0 10.323)" fill="#934c51"/>
    <path id="Path_2" data-name="Path 2" d="M.132.033,0,0C.062.014.1.025.132.033Z" transform="translate(3.788 16.499)" fill="#934c51"/>
    <path id="Path_3" data-name="Path 3" d="M.022,0,.044.03C0,.008-.018,0,.022,0Z" transform="translate(4.883 16.664)" fill="#934c51"/>
    <path id="Path_4" data-name="Path 4" d="M0,.231A.917.917,0,0,1,.165,0,1.34,1.34,0,0,0,0,.231Z" transform="translate(4.894 11.398)" fill="#934c51"/>
    <path id="Path_5" data-name="Path 5" d="M.042,0c0,.062-.011.128-.011.19C-.035-.087.023.03.042,0Z" transform="translate(0.004 19.575)" fill="#934c51"/>
    <path id="Path_6" data-name="Path 6" d="M0,0,.048,0C.048.011.029.007,0,0Z" transform="translate(14.502 32.548)" fill="#934c51"/>
    <path id="Path_7" data-name="Path 7" d="M.007.007,0,0C.033.022.029.018.007.007Z" transform="translate(20.306 15.881)" fill="#934c51"/>
    <path id="Path_8" data-name="Path 8" d="M0,0,.022.014C.1.125.062.081,0,0Z" transform="translate(5.623 26.924)" fill="#934c51"/>
    <path id="Path_9" data-name="Path 9" d="M.005,0,.019.007,0,0Z" transform="translate(11.984 10.748)" fill="#934c51"/>
    <path id="Path_10" data-name="Path 10" d="M0,0A1.051,1.051,0,0,0,.439.154Q.346.2.253.264Z" transform="translate(11.544 10.597)" fill="#934c51"/>
    <path id="Path_11" data-name="Path 11" d="M.044.054,0,0Z" transform="translate(3.514 24.819)" fill="#934c51"/>
    <path id="Path_12" data-name="Path 12" d="M.161.018C.081.015.033.022,0,0,.044.007.1.011.161.018Z" transform="translate(8.98 10.392)" fill="#934c51"/>
    <path id="Path_13" data-name="Path 13" d="M.006,0h0Z" transform="translate(9.142 10.409)" fill="#934c51"/>
    <path id="Path_14" data-name="Path 14" d="M.038,0A.055.055,0,0,0,.031.051C-.006.07-.017.062.038,0Z" transform="translate(5.054 11.402)" fill="#934c51"/>
    <path id="Path_15" data-name="Path 15" d="M0,0l0,.016L0,.034Z" transform="translate(0.047 19.542)" fill="#934c51"/>
    <path id="Path_16" data-name="Path 16" d="M.154.093A.737.737,0,0,0,0,0C0-.01.044,0,.154.093Z" transform="translate(19.006 14.473)" fill="#934c51"/>
    <path id="Path_17" data-name="Path 17" d="M0,0,.163.267.108.192Z" transform="translate(24.463 21.464)" fill="#934c51"/>
    <path id="Path_18" data-name="Path 18" d="M.055,0,.128.147A.456.456,0,0,0,0,.051Z" transform="translate(22.785 18.601)" fill="#934c51"/>
    <path id="Path_19" data-name="Path 19" d="M.117.222c0-.037-.264-.425,0-.081C.128.182.326.46.117.222Z" transform="translate(22.21 17.717)" fill="#934c51"/>
    <path id="Path_20" data-name="Path 20" d="M.253.2C.044.066-.08.022.059,0c.381.154.055.106.4.245C.528.315.176.132.253.2Z" transform="translate(14.839 11.776)" fill="#934c51"/>
    <path id="Path_21" data-name="Path 21" d="M0,0A.78.78,0,0,1,.1.073Z" transform="translate(15.092 11.977)" fill="#934c51"/>
    <path id="Path_22" data-name="Path 22" d="M.081.044A.666.666,0,0,0,0,0L.026,0A.107.107,0,0,1,.081.044Z" transform="translate(5.593 16.583)" fill="#934c51"/>
    <path id="Path_23" data-name="Path 23" d="M.062,0,.123.006,0,.063Z" transform="translate(3.543 16.413)" fill="#934c51"/>
    <path id="Path_24" data-name="Path 24" d="M0,.088A.7.7,0,0,1,.092,0C.062.026.029.059,0,.088Z" transform="translate(0.723 16.869)" fill="#934c51"/>
    <path id="Path_25" data-name="Path 25" d="M0,.253A.984.984,0,0,1,.154.077L.234,0C.062.18.04.329,0,.253Z" transform="translate(0.489 16.957)" fill="#934c51"/>
    <path id="Path_26" data-name="Path 26" d="M24.95,2.571A42.652,42.652,0,0,0,18.015.491L17.935.469l-.055,0c-.132-.025-.264-.047-.4-.07L17.47.388H17.44c-.154-.029-.311-.055-.469-.077-.066-.022-.106-.044-.113-.062-.084,0,.007.033.015.048L16.836.29,16.554.224l-.007.026A21.311,21.311,0,0,0,14.28.059,1.665,1.665,0,0,0,14.042,0L12.816.041c-.319.018-.6.04-.773.066-.359.026-.718.062-1.076.114-.231.029-.458.066-.681.106-.1-.019-.157-.048-.161-.081.245-.015.74-.025.8-.114a3.2,3.2,0,0,1-.7.011c-.238.124.461-.044.143.077a1.869,1.869,0,0,1-.329.01c.121.015-.139.092-.183.121a5.808,5.808,0,0,0-.7.176c-.216.062-.436.125-.718.216L8.425.759C8.3.791,8.184.824,8.063.864c-.2.015-.366,0-.311-.054-.326.11-.333.146-.611.238.406-.249-.081.044-.157-.015-.282.1-.081.077-.2.146a.507.507,0,0,1-.187.015c-.128.113.275.037.253.121-.139.059-.275.121-.41.183l-.011-.03L6.349,1.5l.029.022c-.135.062-.267.124-.4.194a.323.323,0,0,1,.044-.348c-.044-.04-.231.176-.344.241-.3.242-.542.231-.8.421l.231-.088a3.253,3.253,0,0,1-.527.285c.007.03.278-.018.176.092a3.621,3.621,0,0,1-.666.374c-.187.084-.326.117-.337.073.128-.077.249-.157.377-.234l.388-.213c-.015-.073-.557.3-.571.216-.209.176-.428.337-.626.524.077-.07.337-.245.264-.139-.271.216-.132.125-.286.3.088-.048.2-.1.319-.158s.253-.1.381-.15l.113-.04c-.183.135-.359.274-.535.421-.231.077-.421.125-.505.146-.22.22-.037.256.033.227-.425.425-.582.26-.981.736l.132-.194c-.11.1-.443.513-.421.454-.048.121-.048.268.055.176l-.45.34c.062-.055.121.059.161.044-.128.176-.329.22-.264.1a3.742,3.742,0,0,0-.278.622c-.073.106-.1-.077-.055-.165a2.418,2.418,0,0,0-.322.513c.2-.264.264-.157.326-.073C.952,6.31.9,6.4.849,6.5L.71,6.635l-.19.19-.172.212a.343.343,0,0,1,.176-.051A1.453,1.453,0,0,0,.2,7.653a3.076,3.076,0,0,0-.132.579,2.809,2.809,0,0,0-.051.52l0-.088c.051-.114.026.384.015.59a.432.432,0,0,0,.011-.169c.092.377-.15.512.007.9-.062-.358-.026-.432.018-.417,0,.147.037.388.051.579s.051.318-.029.264c.073.179.1.351.158.315.059.234.121.472.2.707-.011-.055,0-.11.106.073a1.985,1.985,0,0,1-.2-.542,2,2,0,0,0-.147-.41c.07-.029.147.1.157-.095A10.7,10.7,0,0,0,.824,12.1a5.246,5.246,0,0,0,.454.527l-.007.044.143.033a.545.545,0,0,0,.081.143c.018,0,.011-.019,0-.055a.928.928,0,0,1,.1.147c.051-.011.011-.139-.037-.267l-.157-.11c-.029-.073-.048-.135-.033-.154.055.07.114.139.172.209l.018.054L1.6,12.7l-.018-.029.044.048L1.6,12.7c.077.146.183.282.231.374s.044.125-.084.048l.322.234a3.229,3.229,0,0,0,.3.329,5.209,5.209,0,0,0,.385.355c.044-.007-.07-.11.029-.073a1.905,1.905,0,0,0,.575.344c.2.077.363.125.381.183.278.176.084.132.256.253,0-.014-.011-.04.044-.011l.19.172c.1.026-.183-.146.077-.04a5.592,5.592,0,0,0,1.022.557c.516.249-.278.014.168.2a.616.616,0,0,1,.45.066,1.482,1.482,0,0,0,.333.253l.015-.077c.231.1.414.183.436.128a1.513,1.513,0,0,0,.417.18c.337.179-.318.048-.414.044a3.678,3.678,0,0,0,.835.19c-.1-.04-.205-.088-.3-.136.7.154.6.326.959.279-.231-.074-.491-.205-.344-.2l.319.15c.044-.007-.183-.081-.026-.051.088.048.271.154.348.205l0,0,.6.187c-.117-.029-.135-.066-.022-.033l.388.154c-.117-.055.015-.037.2-.008.524.1.377.271.8.289-.058-.011-.066-.026-.128-.037l.216.015c.011.172,1.234.26,1.256.414.315-.03.026-.026-.348-.176.11,0,.216.007.326.007a2.921,2.921,0,0,1-.373-.073,3.381,3.381,0,0,1,1.036.212c.165,0-.114-.139.344-.054.648.084-.135.11.253.161l.293-.062a5.12,5.12,0,0,0,1.3.055.624.624,0,0,1,.165.029c.45-.04.948.066,1.289.022-.08-.011.191-.069.231-.095h.615c-.271,0-.264-.048-.319-.092.19-.011.286.007.414,0-.081-.011-.161-.022-.062-.055.216.014.428,0,.644,0a1.137,1.137,0,0,1-.168.04,4.354,4.354,0,0,0,.729-.113c-.022-.015-.1-.022-.124-.037a.561.561,0,0,1-.4.025c.439-.051.106-.025.311-.091.308-.037.447,0,.373.051a3.262,3.262,0,0,1,.813-.139l-.081-.055.329-.044-.282-.025c.608-.176.139.088.816-.117l-.015-.055c.267-.048.385.025.571-.1.264-.033-.414.2.187.048a4.708,4.708,0,0,1,.483-.219c.2-.037-.121.114-.245.147a1.762,1.762,0,0,0,.685-.315,1.535,1.535,0,0,1,.611-.285c-.253.146.267.018-.37.267.319-.084.564-.319.9-.4l-.231.026a2.019,2.019,0,0,1,.311-.106l-.051-.04c.425-.092.67-.4.948-.41-.2,0,.275-.154.392-.286-.322.135-.853.509-.937.443.124-.1.275-.125.392-.231a1.281,1.281,0,0,1-.293.1,7.772,7.772,0,0,1,1.018-.531c-.157.1-.322.2-.483.293.088.058.22-.125.4-.151.205-.205.432-.274.593-.447-.048.037-.059.033-.106.073.494-.384.5-.634.677-.8a2.813,2.813,0,0,1,.3-.285c.1-.077.157-.117.121-.044.157-.121-.589.575-.253.41a1.438,1.438,0,0,1,.377-.465,1.985,1.985,0,0,0,.535-.769c-.205.289.018-.22-.154.04a4.7,4.7,0,0,1,.286-.487l-.015-.124c.11-.231.117-.267.146-.326a.479.479,0,0,0,.029-.153c0-.04.007-.1.011-.161l-.011-.249c0,.136-.026.055-.059-.026s-.073-.168-.066-.069a5.252,5.252,0,0,0-.176-.553l.008.025a1.748,1.748,0,0,0-.428-.549c-.055-.048-.114-.1-.183-.161s-.165-.143-.3-.249l.073.015a4.944,4.944,0,0,0-1.271-.7l-.681-.274c-.223-.088-.443-.172-.648-.26l.3.092c-.048-.011-.183-.074-.344-.143-.08-.033-.165-.066-.249-.1a.241.241,0,0,0-.1-.022.2.2,0,0,0,.066.037c-.015.029-.084.051-.209.011l.011-.044-.088.008c-.081-.033-.04-.033,0-.037s.073-.01.011-.033a.783.783,0,0,1-.253-.029,5.466,5.466,0,0,0,.751-.491c.121-.011-.015.066-.147.139l-.1.055-.044.029c-.018.018-.011.029.033.029l.026-.029.055-.04c.04-.029.1-.066.187-.121l-.04.088a20.756,20.756,0,0,1,1.944-1.095l-.037,0a1.564,1.564,0,0,1,.582-.235c.048-.055-.168.037-.066-.041a1.362,1.362,0,0,0,.707-.446c.183-.2.289-.414.425-.545-.059-.011-.033-.169-.037-.3a1.652,1.652,0,0,0,.084-.685A2.231,2.231,0,0,0,24.95,2.571ZM7.155,16.178c.157.04.242.04.319.139C7.4,16.328,7.239,16.222,7.155,16.178ZM1.073,12.216c.077.081.128.169.187.234A.562.562,0,0,1,1.073,12.216Z" transform="translate(35.352 22.552)" fill="#934c51"/>
    <path id="Path_27" data-name="Path 27" d="M0,0C.044.018.088.033.128.048A.749.749,0,0,1,0,0Z" transform="translate(44.839 39.513)" fill="#934c51"/>
    <path id="Path_28" data-name="Path 28" d="M.015.029,0,0C.04.026.055.04.015.029Z" transform="translate(43.872 39.209)" fill="#934c51"/>
    <path id="Path_29" data-name="Path 29" d="M.216.165A2.393,2.393,0,0,1,0,0C.066.059.143.11.216.165Z" transform="translate(36.886 35.507)" fill="#934c51"/>
    <path id="Path_30" data-name="Path 30" d="M.007,0A1.345,1.345,0,0,0,.168.055C-.085.055.029.026.007,0Z" transform="translate(50.182 40.296)" fill="#934c51"/>
    <path id="Path_31" data-name="Path 31" d="M.011.012,0,.015C.033-.006.026,0,.011.012Z" transform="translate(43.785 23.284)" fill="#934c51"/>
    <path id="Path_32" data-name="Path 32" d="M0,.044.022.026C.146-.022.1,0,0,.044Z" transform="translate(58.929 38.004)" fill="#934c51"/>
    <path id="Path_33" data-name="Path 33" d="M0,.012.009,0,0,.019Z" transform="translate(36.027 28.84)" fill="#934c51"/>
    <path id="Path_34" data-name="Path 34" d="M0,.4A.974.974,0,0,0,.249,0L.315.213Z" transform="translate(35.78 28.857)" fill="#934c51"/>
    <path id="Path_35" data-name="Path 35" d="M0,0A.06.06,0,0,0,.051.011C.069.044.062.055,0,0Z" transform="translate(36.89 35.474)" fill="#934c51"/>
    <path id="Path_36" data-name="Path 36" d="M0,0H.015L.03.011Z" transform="translate(50.16 40.286)" fill="#934c51"/>
    <path id="Path_37" data-name="Path 37" d="M.148,0A.55.55,0,0,0,0,.1C-.009.084.024.055.148,0Z" transform="translate(41.944 23.651)" fill="#934c51"/>
    <path id="Path_38" data-name="Path 38" d="M0,0C.1,0,.209,0,.311.007L.22.011Z" transform="translate(50.61 22.662)" fill="#934c51"/>
    <path id="Path_39" data-name="Path 39" d="M.018.073,0,0,.161.018A.435.435,0,0,0,.018.073Z" transform="translate(47.366 22.519)" fill="#934c51"/>
    <path id="Path_40" data-name="Path 40" d="M.249.048C.212.033-.245.044.179,0,.22.018.557,0,.249.048Z" transform="translate(46.296 22.567)" fill="#934c51"/>
    <path id="Path_41" data-name="Path 41" d="M0,.3C.274-.006.128.287.366,0c.088-.044-.2.231-.11.183C.062.334-.019.437,0,.3Z" transform="translate(37.845 26.088)" fill="#934c51"/>
    <path id="Path_42" data-name="Path 42" d="M0,.074.1,0C.048.04.018.062,0,.074Z" transform="translate(38.102 26.203)" fill="#934c51"/>
    <path id="Path_43" data-name="Path 43" d="M.216.059.011.026,0,0A.649.649,0,0,1,.216.059Z" transform="translate(41.767 38.59)" fill="#934c51"/>
    <path id="Path_44" data-name="Path 44" d="M.059.056,0,.043.127,0Z" transform="translate(45.078 39.611)" fill="#934c51"/>
    <path id="Path_45" data-name="Path 45" d="M.381.062C.26.048.121.014,0,0,.26.048.425-.022.381.062Z" transform="translate(47.655 40.227)" fill="#934c51"/>
    <path id="Path_46" data-name="Path 46" d="M0,0,.088.106A1.078,1.078,0,0,1,0,0Z" transform="translate(41.214 59.634)" fill="#934c51"/>
    <path id="Path_47" data-name="Path 47" d="M0,.033,0,0C.026.04.033.059,0,.033Z" transform="translate(40.504 58.931)" fill="#934c51"/>
    <path id="Path_48" data-name="Path 48" d="M.245,0A2.673,2.673,0,0,1,0,.146Z" transform="translate(37.948 63.489)" fill="#934c51"/>
    <path id="Path_49" data-name="Path 49" d="M0,.128.139,0C-.011.249.033.125,0,.128Z" transform="translate(46.011 60.443)" fill="#934c51"/>
    <path id="Path_50" data-name="Path 50" d="M.033.03,0,0Z" transform="translate(42.426 41.761)" fill="#934c51"/>
    <path id="Path_51" data-name="Path 51" d="M.009.015l0,.011C-.005-.011,0,0,.009.015Z" transform="translate(28.309 51.34)" fill="#934c51"/>
    <path id="Path_52" data-name="Path 52" d="M.011.1,0,.075C0-.053.007,0,.011.1Z" transform="translate(46.099 51.386)" fill="#934c51"/>
    <path id="Path_53" data-name="Path 53" d="M.008.013,0,0,.014.013Z" transform="translate(32.041 60.215)" fill="#934c51"/>
    <path id="Path_54" data-name="Path 54" d="M.271.374A.988.988,0,0,0,0,0L.216.015C.231.136.249.256.271.374Z" transform="translate(32.056 60.227)" fill="#934c51"/>
    <path id="Path_55" data-name="Path 55" d="M0,0A.351.351,0,0,1,0,.059Z" transform="translate(46.567 54.328)" fill="#934c51"/>
    <path id="Path_56" data-name="Path 56" d="M.908,16.921c.205.33.143.564.282.853l-.044-.241a2.739,2.739,0,0,1,.176.564c.029,0,.044-.275.124-.154.238.509.311,1.066.223,1.069L1.4,18.177c-.077,0,.183.593.1.6.055.121.11.242.172.362l.19.355c-.044-.091-.165-.377-.077-.285a1.2,1.2,0,0,0,.223.344,5.993,5.993,0,0,1-.139-.747L1.856,18.7c.092.205.187.41.289.615l0,.029c.018.22.011.4.011.48.157.268.238.1.227.022.293.528.113.623.436,1.146l-.143-.183c.033.062.117.209.194.329s.143.216.117.2c.1.081.238.124.183,0l.183.531c-.033-.077.092-.1.092-.139.121.18.092.388,0,.282a2.941,2.941,0,0,0,.5.461c.073.106-.1.07-.172,0a2.267,2.267,0,0,0,.37.465c-.183-.278-.051-.3.048-.33.066.081.135.161.2.238.092.231.187.454.293.681a.351.351,0,0,1,.029-.179,1.814,1.814,0,0,0,.447.578,9.034,9.034,0,0,0,.806.729L5.91,24.6c-.066-.1.326.19.458.341-.011-.037-.051-.062-.117-.117.34.176.286.432.652.59-.286-.2-.315-.278-.275-.3.2.209.758.568.575.582.165.088.289.2.311.136a4.075,4.075,0,0,0,.608.432c-.044-.033-.073-.088.128,0-.4-.154-.666-.48-.871-.531.037-.07.179-.015.062-.176a4.807,4.807,0,0,0,1.443.934,2.446,2.446,0,0,0,.732-.048l.037.03a.785.785,0,0,0,.106-.11.613.613,0,0,0,.168-.015c.011-.011-.011-.018-.051-.022.073-.015.143-.022.179-.03.011-.051-.124-.058-.26-.077a.952.952,0,0,1-.176.088c-.084-.014-.15-.037-.154-.058a2.057,2.057,0,0,0,.253-.037l.077.007.051-.029-.07,0,.1-.025-.033.022.124-.011.117-.026a1.879,1.879,0,0,1,.2-.037c.1-.026.139,0,.015.1a2.966,2.966,0,0,0,.326-.267l.245-.147a1.129,1.129,0,0,0,.139-.117c.044-.037.092-.077.154-.139l.22-.268c-.007-.044-.117.077-.077-.025a1.265,1.265,0,0,0,.275-.637c.048-.216.04-.392.1-.429.081-.329.1-.128.154-.34-.011.007-.033.025-.026-.037a2.514,2.514,0,0,0,.084-.249c-.018-.1-.055.223-.069-.055a6.027,6.027,0,0,0,.1-1.15c.04-.564.11.249.121-.227a.6.6,0,0,1-.1-.439.823.823,0,0,1,.106-.238l-.077-.033c.007-.1.025-.139-.029-.223a.112.112,0,0,0,.026-.073.1.1,0,0,0,0-.048v-.022h.007a.394.394,0,0,1,.084.216.78.78,0,0,0,.04.132l.033.073c-.026-.051-.037-.1-.026-.1l.026-.077-.081-.1c.026-.008.07.022.1.051a.538.538,0,0,1,.055.088c.033.059-.015.03.183.1l-.066-.062-.029-.033-.015-.015-.04-.066c-.026-.04-.04-.084,0-.077l.062.088.033.044.055.066c.044.014-.132-.147,0-.055a3.525,3.525,0,0,1,.223.329v-.007l.443.44c-.088-.077-.088-.121,0-.04l.267.311c-.077-.1.033-.029.172.088.4.348.183.421.535.645-.044-.041-.044-.055-.088-.1l.176.121c-.037.077.172.289.4.516s.513.436.494.517c.344.132.011-.011-.256-.34q.149.093.308.176a2.162,2.162,0,0,1-.315-.26c.19.117.359.257.527.37a2.394,2.394,0,0,0,.465.271c.1.014.066-.026.077-.048s.066-.019.333.007c.381,0,.352.011.282.058s-.194.077.055.058a2.406,2.406,0,0,0,.3-.172,2.074,2.074,0,0,0,1.175-.828A1.526,1.526,0,0,1,18.1,23.3a3.56,3.56,0,0,0,.531-1.3c-.029.081-.022-.212-.04-.256.04-.212.066-.417.1-.615-.037.267-.084.252-.135.3.015-.19.044-.278.059-.406-.022.077-.044.157-.062.054.04-.208.077-.421.114-.63,0,.037.007.11.007.172a4.7,4.7,0,0,0,.015-.732c-.018.018-.04.1-.059.117a.545.545,0,0,1-.044.4c.026-.436-.008-.11-.037-.322.011-.308.077-.432.117-.352a3.809,3.809,0,0,1,.026-.817l-.066.066.022-.33-.081.268c-.048-.626.117-.117.066-.816h-.059c.018-.268.117-.363.037-.572.026-.264.1.447.088-.172a3.975,3.975,0,0,1-.088-.513c.011-.172.062.066.073.212-.033-.853-.227-.524-.22-1.333.066.278.1-.249.146.421.011-.322-.135-.622-.11-.959l-.051.223a2.337,2.337,0,0,1,0-.322l-.055.033c.055-.421-.139-.754-.044-1.018-.077.183-.04-.3-.106-.461a3.473,3.473,0,0,0,.055.619c.026.205.04.373,0,.4-.051-.153-.018-.3-.07-.447a2.045,2.045,0,0,1-.018.308,5.324,5.324,0,0,1-.092-1.131c.029.183.048.37.07.553.088-.058-.022-.249.029-.417-.1-.267-.066-.494-.139-.714.011.058,0,.066.015.125a4.642,4.642,0,0,0-.366-.967c-.066-.227-.121-.677-.044-.527-.018-.2.161.791.2.424-.22-.3-.11-.714-.421-1.416.044.333-.136-.161-.088.132a1.616,1.616,0,0,1-.081-.535l-.077-.088a2.559,2.559,0,0,0-.132-.831c.051.238-.165-.245-.128-.062a2.637,2.637,0,0,1-.161-.516l0,.026a3.562,3.562,0,0,0-.267-.593,4.622,4.622,0,0,1-.249-.553l.055.048A12.391,12.391,0,0,0,14.9,4.981l.209.245a5.523,5.523,0,0,0-.538-.714c.033.048.088.128.121.169-.029.011-.132-.044-.275-.205l-.018-.1-.084-.044c-.209-.256.114.029-.1-.223A2.7,2.7,0,0,1,13.6,3.56a3.344,3.344,0,0,0-.681-.572c-.1-.227.461.421.34.187a2.054,2.054,0,0,1-.286-.22l.092.007c-.19-.161-.362-.286-.513-.406s-.289-.213-.428-.3l-.41-.29-.491-.326.022.029a2.074,2.074,0,0,1-.512-.366c-.07-.011.121.117,0,.077C10.337.956,9.714.938,9.462.692c0,.055-.15.047-.286.04-.209-.1-.421-.194-.641-.282a5.626,5.626,0,0,0-7.77,4.09l-.015.036-.007.044,0,.018c-.066.3-.125.6-.179.9-.022.059-.044.1-.062.1,0,.081.029,0,.048-.011l-.011.055c-.026.088-.051.172-.073.259l.026.008c-.07.4-.128.809-.18,1.209l.015-.147a.767.767,0,0,1,0-.092L.3,7.2c-.044.337-.081.674-.11,1.007a1.714,1.714,0,0,0-.062.234C.124,9.015.069,10,.1,10.414c0,.6.029,1.2.081,1.8-.026.088-.055.139-.092.143a2.187,2.187,0,0,0-.044-.806A3.192,3.192,0,0,1,0,12.245c.106.245-.007-.462.088-.139a1.485,1.485,0,0,1-.018.329c.029-.117.07.147.1.194.037.275.073.491.114.71l.058.341.084.4,0,0c.022.132.048.26.073.392-.011.2-.051.359-.1.3.077.333.121.344.165.63-.183-.432.033.088-.033.154.059.293.062.092.114.22,0,.051.007.172-.011.187.059.08.07-.018.088-.11.015-.066.033-.136.066-.125.037.143.077.289.121.432l-.026.007.022.081.022-.022c.04.139.084.278.132.417a.319.319,0,0,1-.329-.1C.7,16.577.868,16.8.908,16.921Zm11.077,4.127c.029,0,.058-.015.113.132C12.091,21.22,12.029,21.11,11.985,21.048ZM9.143,26.379c.113-.011.216-.008.308-.018A.537.537,0,0,1,9.143,26.379Z" transform="translate(27.893 37.279)" fill="#934c51"/>
    <path id="Path_57" data-name="Path 57" d="M0,.046A.082.082,0,0,0,.029,0C.07-.005.073.006,0,.046Z" transform="translate(37.919 63.571)" fill="#934c51"/>
    <path id="Path_58" data-name="Path 58" d="M0,.022.009.008.028,0Z" transform="translate(45.982 60.572)" fill="#934c51"/>
    <path id="Path_59" data-name="Path 59" d="M0,0A.584.584,0,0,0,.073.157C.062.165.033.132,0,0Z" transform="translate(28.46 53.079)" fill="#934c51"/>
    <path id="Path_60" data-name="Path 60" d="M0,.161A1.288,1.288,0,0,1,.029,0,.316.316,0,0,0,.077.15Z" transform="translate(27.856 47.576)" fill="#934c51"/>
    <path id="Path_61" data-name="Path 61" d="M0,.194C.022.158.029-.179.055.128.033.165.015.619,0,.194Z" transform="translate(27.834 48.429)" fill="#934c51"/>
    <path id="Path_62" data-name="Path 62" d="M.148.163C.243.387.32.489.2.434-.032.1.21.317,0,.017-.017-.078.173.263.148.163Z" transform="translate(30.092 57.321)" fill="#934c51"/>
    <path id="Path_63" data-name="Path 63" d="M.044.117,0,0A.658.658,0,0,1,.044.117Z" transform="translate(30.196 57.367)" fill="#934c51"/>
    <path id="Path_64" data-name="Path 64" d="M.04.077.022.063A.083.083,0,0,1,0,0,.245.245,0,0,0,.04.077Z" transform="translate(39.962 58.656)" fill="#934c51"/>
    <path id="Path_65" data-name="Path 65" d="M.044.04,0,0,.13.025Z" transform="translate(41.348 59.873)" fill="#934c51"/>
    <path id="Path_66" data-name="Path 66" d="M.48.121A2.1,2.1,0,0,1,0,0C.315.124.535.029.48.121Z" transform="translate(43.422 61.673)" fill="#934c51"/>
    <path id="Path_67" data-name="Path 67" d="M0,.025.136,0A1.166,1.166,0,0,1,0,.025Z" transform="translate(12.236 55.543)" fill="#934c51"/>
    <path id="Path_68" data-name="Path 68" d="M.029.015,0,0C.048,0,.07,0,.029.015Z" transform="translate(11.265 55.822)" fill="#934c51"/>
    <path id="Path_69" data-name="Path 69" d="M0,.249A1.722,1.722,0,0,1,.092,0Z" transform="translate(7.267 51.97)" fill="#934c51"/>
    <path id="Path_70" data-name="Path 70" d="M0,.022.165,0C-.058.114.029.037,0,.022Z" transform="translate(17.256 53.676)" fill="#934c51"/>
    <path id="Path_71" data-name="Path 71" d="M.019.044,0,0Z" transform="translate(26.941 38.092)" fill="#934c51"/>
    <path id="Path_72" data-name="Path 72" d="M.007.018,0,.026C.015-.011.011,0,.007.018Z" transform="translate(4.553 42.75)" fill="#934c51"/>
    <path id="Path_73" data-name="Path 73" d="M0,.075.011.049C.106-.039.069,0,0,.075Z" transform="translate(24.154 47.893)" fill="#934c51"/>
    <path id="Path_74" data-name="Path 74" d="M.016,0,0,0,.02,0Z" transform="translate(4.805 50.669)" fill="#934c51"/>
    <path id="Path_75" data-name="Path 75" d="M.484.161A1.208,1.208,0,0,0,.22.143,1.53,1.53,0,0,0,0,.157C.051.106.1.055.15,0A3.04,3.04,0,0,0,.484.161Z" transform="translate(4.824 50.513)" fill="#934c51"/>
    <path id="Path_76" data-name="Path 76" d="M3.995,6.671c-.183.161-.476.461-.527.446-.1.245.326-.326.161-.033a2.554,2.554,0,0,1-.245.216c.1-.066-.048.161-.066.212-.168.216-.293.4-.425.575l-.2.282-.216.337v0c-.081.114-.161.227-.238.344-.143.121-.275.2-.264.125-.2.278-.172.319-.34.556.172-.439-.037.085-.132.088-.154.26-.018.11-.066.242-.029.04-.11.132-.135.128-.022.172.238-.146.275-.062-.07.132-.135.264-.2.4l-.029-.018-.037.077.04,0c-.066.132-.125.268-.183.4a.328.328,0,0,1-.19-.3c-.051,0-.066.282-.11.406-.07.377-.267.517-.341.828l.121-.213a3.056,3.056,0,0,1-.22.549c.022.019.209-.187.194-.04a3.474,3.474,0,0,1-.286.7c-.1.18-.176.3-.212.275a8.818,8.818,0,0,1,.311-.828c-.059-.047-.238.575-.308.52A5.205,5.205,0,0,0,0,13.735c.007-.114.073-.436.092-.3a1.174,1.174,0,0,0,0,.432c.029-.1.073-.223.121-.348s.128-.249.19-.366l.059-.1,0,.007a4.575,4.575,0,0,0-.121.659l-.015.029c-.055.1-.1.19-.132.264l-.081.175c.037.326.183.191.2.118a2.39,2.39,0,0,1,.026.363c.007.1,0,.175,0,.26A.767.767,0,0,0,.37,15.2a.973.973,0,0,0,.055.164,1.666,1.666,0,0,0,.117.187c-.051-.066-.114-.128-.161-.2a2.329,2.329,0,0,0,.231.355c.106.114.194.209.165.194.117.077.275.066.179-.037l.179.231c.07.073.143.139.216.209-.066-.055.04-.128.018-.165a.67.67,0,0,1,.2.176c.033.051.026.092-.051.07l.253.055.135.011a1.227,1.227,0,0,0,.322-.008c.128.018-.026.124-.128.121a1.516,1.516,0,0,0,.623.047c-.253-.015-.278-.1-.256-.165a.684.684,0,0,1,.033-.077,2.56,2.56,0,0,0,.333,0,3.487,3.487,0,0,0,.714.143.388.388,0,0,1-.139-.121,6.185,6.185,0,0,0,1.761-.359l-.081.022c-.121,0,.337-.157.535-.176-.037-.011-.077.007-.161.029a.762.762,0,0,1,.425-.077.9.9,0,0,0,.2-.008A.707.707,0,0,0,6.2,15.8l.051-.022.033-.022c-.029.011-.121.033-.168.044a.6.6,0,0,1-.121.015c-.062,0-.077-.015-.077-.037a2.338,2.338,0,0,0,.26-.051l.114-.026.088-.018c.048.018.073.077.088.1s0,.048-.029.062c.026.014.015,0,.022,0l.007,0c0,.026,0,.044.037.037l-.07.084c-.022.029-.037.044-.077.1l-.205.282c.037-.04.092-.059-.007.121a3.988,3.988,0,0,1,.3-.45.884.884,0,0,0,.088-.128l.022-.055-.037-.011a.3.3,0,0,1,.113-.022c.037,0,.073-.008.037-.084.026.032.07.062.073.091l-.07.11c-.048.07-.092.128-.135.183-.092.121-.179.227-.267.326l-.487.539-.289.6-.044.007.018.147c-.055.062-.1.1-.1.121s.022,0,.048-.022a.767.767,0,0,1-.1.139c.029.044.132-.037.231-.121l.048-.183c.062-.055.117-.1.139-.085l-.125.216-.062.051-.011.059.044-.055-.055.1.011-.044c-.205.249-.428.545-.351.264-.044.124-.088.245-.128.373a4.252,4.252,0,0,0-.249.363l-.1.165a3.1,3.1,0,0,0-.143.322c.022.037.088-.11.081,0a1.262,1.262,0,0,0-.088.689c.022.22.073.392.037.443.011.172,0,.213-.011.238s-.037.033-.015.15c.007-.011.018-.04.04.026a1.275,1.275,0,0,0,.055.3c.077.1-.088-.267.092.022a1.722,1.722,0,0,0,.45.538,1.846,1.846,0,0,0,.52.3c.568.256-.3.018.2.205a.964.964,0,0,1,.5.014c.088.03.121.059.179.077a.729.729,0,0,0,.311.04l-.033-.073a2.073,2.073,0,0,0,.344-.07c.08-.022.124-.044.121-.074a1.411,1.411,0,0,0,.436-.087c.377-.044-.231.22-.308.267a3.956,3.956,0,0,0,.784-.308l-.322.055c.652-.26.67-.055.941-.293-.231.066-.52.1-.392.018l.344-.048c.033-.029-.194.036-.048-.026.1-.011.3-.018.4-.018l0,0,.6-.158c-.113.037-.15.015-.033-.018l.4-.073c-.124.018-.007-.044.165-.11.494-.179.454.044.824-.153-.059.022-.07.01-.128.033.066-.033.128-.066.19-.1.1.143,1.186-.384,1.282-.253.26-.172,0-.044-.385.015l.286-.154c-.125.037-.223.092-.359.121a2.915,2.915,0,0,1,1-.308c.143-.08-.161-.066.271-.216.612-.22-.066.157.3.026l.227-.187A6.08,6.08,0,0,0,15,19.689a.536.536,0,0,1,.157-.051c.381-.238.875-.352,1.153-.549-.077.022.139-.143.165-.183.187-.084.373-.165.553-.264-.242.128-.256.077-.326.058.168-.092.256-.121.37-.183-.077.029-.154.055-.081-.018l.582-.271a1.059,1.059,0,0,1-.139.1,3,3,0,0,0,.6-.417c-.026,0-.1.03-.128.022a.529.529,0,0,1-.344.2c.366-.241.084-.073.238-.223.253-.176.4-.194.352-.114a5.469,5.469,0,0,1,.67-.476l-.092-.011L19,17.129l-.26.1c.465-.428.165.022.685-.45l-.037-.048c.216-.157.352-.146.465-.337.22-.147-.286.359.187-.04.066-.091.22-.267.337-.4.157-.118-.058.157-.154.238a1.817,1.817,0,0,0,.472-.575,1.609,1.609,0,0,1,.428-.513c-.161.238.245-.1-.216.4.249-.212.366-.528.641-.733l-.2.114a2.121,2.121,0,0,1,.242-.216l-.062-.018c.348-.245.458-.615.71-.732-.19.07.194-.242.256-.4-.256.234-.59.78-.7.751.077-.139.205-.216.275-.359a1.369,1.369,0,0,1-.234.2,6.645,6.645,0,0,1,.743-.861c-.11.15-.22.3-.344.443.106.022.169-.191.315-.278.121-.26.308-.4.4-.615-.033.055-.04.051-.073.1a3.857,3.857,0,0,0,.384-.956c.1-.216.352-.593.315-.432.114-.157-.4.711-.124.458a1.178,1.178,0,0,1,.231-.538,3.067,3.067,0,0,0,.351-.824c-.168.289,0-.213-.146.047a1.678,1.678,0,0,1,.264-.472l-.007-.117a1.922,1.922,0,0,1,.187-.274,2.327,2.327,0,0,0,.2-.473c-.1.224.018-.293-.066-.124a3.893,3.893,0,0,1,.169-.516l-.015.026a3.238,3.238,0,0,0,.117-.641c.018-.139.033-.271.1-.6l.018.069a5.442,5.442,0,0,0,.11-.681c.029-.238.04-.483.048-.732s0-.5,0-.74-.026-.494-.044-.725c.026.106.037.216.055.326-.015-.051,0-.209-.033-.388a2.489,2.489,0,0,0-.114-.52c.018.055.022.157.033.209-.033,0-.088-.1-.161-.311l.018-.1L24.709,3.8c-.1-.322.1.074-.011-.249a4.367,4.367,0,0,1-.41-.736A3.358,3.358,0,0,0,24,2.365.881.881,0,0,0,23.75,2.1c-.033-.121.07,0,.165.125s.172.256.139.128c-.07-.077-.1-.114-.245-.278l.1.025a5.3,5.3,0,0,0-.45-.494,4.238,4.238,0,0,0-.4-.355c-.135-.1-.26-.212-.41-.307a5.116,5.116,0,0,0-.5-.326l.022.029a2.658,2.658,0,0,1-.553-.326c-.07,0,.135.106.011.077a1.519,1.519,0,0,0-.762-.293A2.584,2.584,0,0,1,20.216,0c.011.051-.125.087-.249.121a5.06,5.06,0,0,0-.71-.015A24.172,24.172,0,0,0,9.6,2.49L9.572,2.5l-.026.015c-.289.146-.575.3-.857.465a.17.17,0,0,1-.092.007c-.059.044,0,.029.029.029l-.066.037-.223.1.015.022A18.931,18.931,0,0,0,6.481,4.463a1.806,1.806,0,0,0-.212.1c-.234.238-.589.546-.9.817-.165.157-.315.308-.425.425A18.586,18.586,0,0,0,3.621,7.225c-.084.044-.146.058-.172.037C3.632,7.1,4,6.778,3.995,6.671ZM7.8,22.109c.146-.055.22-.1.337-.062C8.081,22.1,7.891,22.1,7.8,22.109ZM5.782,17.228a1.469,1.469,0,0,1-.136.263A.727.727,0,0,1,5.782,17.228Z" transform="translate(2.082 34.061)" fill="#934c51"/>
    <path id="Path_77" data-name="Path 77" d="M.017,0A.053.053,0,0,0,.025.051C0,.077-.012.073.017,0Z" transform="translate(7.374 51.966)" fill="#934c51"/>
    <path id="Path_78" data-name="Path 78" d="M0,.007.013,0,.031,0Z" transform="translate(17.224 53.697)" fill="#934c51"/>
    <path id="Path_79" data-name="Path 79" d="M.061,0A1.188,1.188,0,0,0,.006.165C-.008.165,0,.121.061,0Z" transform="translate(3.379 44.09)" fill="#934c51"/>
    <path id="Path_80" data-name="Path 80" d="M.245,0,.176.059C.117.1.055.139,0,.183Z" transform="translate(9.354 37.755)" fill="#934c51"/>
    <path id="Path_81" data-name="Path 81" d="M0,.088.135,0A.453.453,0,0,0,.062.136Z" transform="translate(6.794 39.817)" fill="#934c51"/>
    <path id="Path_82" data-name="Path 82" d="M.117.115C.154.1.392-.134.2.108.161.119-.172.43.117.115Z" transform="translate(6.033 40.394)" fill="#934c51"/>
    <path id="Path_83" data-name="Path 83" d="M.066.518C-.011.306,0,.277.018.251S.047.211,0,.016c.015-.1.077.315.088.205C.117.481.183.613.066.518Z" transform="translate(2.14 48.486)" fill="#934c51"/>
    <path id="Path_84" data-name="Path 84" d="M0,0c0,.074,0,.11,0,.132C0,.092,0,.047,0,0Z" transform="translate(2.227 48.575)" fill="#934c51"/>
    <path id="Path_85" data-name="Path 85" d="M.209,0,.022.088,0,.077A.535.535,0,0,1,.209,0Z" transform="translate(9.204 56.401)" fill="#934c51"/>
    <path id="Path_86" data-name="Path 86" d="M.057.082,0,.1.086,0Z" transform="translate(12.511 55.466)" fill="#934c51"/>
    <path id="Path_87" data-name="Path 87" d="M.359.031C.249.082.114.119,0,.163.249.086.355-.065.359.031Z" transform="translate(15 54.638)" fill="#934c51"/>
    <path id="Path_88" data-name="Path 88" d="M.1,0,0,.1C.044.055.073.022.1,0Z" transform="translate(30.405 3.2)" fill="#934c51"/>
    <path id="Path_89" data-name="Path 89" d="M.009.007.046,0C.006.029-.013.037.009.007Z" transform="translate(31.08 2.409)" fill="#934c51"/>
    <path id="Path_90" data-name="Path 90" d="M.073.249,0,0C.018.055.044.135.073.249Z" transform="translate(36.516 2.892)" fill="#934c51"/>
    <path id="Path_91" data-name="Path 91" d="M.121.021,0,.141C.113-.082.088.028.121.021Z" transform="translate(27.468 7.716)" fill="#934c51"/>
    <path id="Path_92" data-name="Path 92" d="M0,0,.04.026Z" transform="translate(29.061 26.115)" fill="#934c51"/>
    <path id="Path_93" data-name="Path 93" d="M0,.011V0C.011.037.007.033,0,.011Z" transform="translate(44.257 8.758)" fill="#934c51"/>
    <path id="Path_94" data-name="Path 94" d="M.012,0l0,.026C-.006.153,0,.1.012,0Z" transform="translate(25.365 16.496)" fill="#934c51"/>
    <path id="Path_95" data-name="Path 95" d="M0,.01.013,0,0,.016Z" transform="translate(39.081 3.058)" fill="#934c51"/>
    <path id="Path_96" data-name="Path 96" d="M0,.337A.892.892,0,0,0,.2.165,1.262,1.262,0,0,0,.352,0V.22A3.313,3.313,0,0,0,0,.337Z" transform="translate(38.728 3.072)" fill="#934c51"/>
    <path id="Path_97" data-name="Path 97" d="M0,.062.015,0Z" transform="translate(25.506 13.537)" fill="#934c51"/>
    <path id="Path_98" data-name="Path 98" d="M18.323,3.991c-.059-.125-.132-.26-.2-.388s-.165-.246-.253-.367c.066.1.231.392.128.3-.205-.315-.11-.164-.293-.333a1.808,1.808,0,0,1,.146.344,2.185,2.185,0,0,1,.1.406l.015.11a3.327,3.327,0,0,0-.333-.586l-.011-.04c-.07-.205-.114-.4-.154-.469-.26-.209-.26-.014-.227.055-.234-.19-.34-.308-.461-.421a.764.764,0,0,0-.212-.165,1.066,1.066,0,0,0-.374-.125,1.5,1.5,0,0,1,.253.029,1.849,1.849,0,0,0-.414-.087c-.154-.011-.286-.011-.253-.026-.139.029-.245.146-.1.153l-.293-.04a2.047,2.047,0,0,0-.3,0c.088-.007.062.121.1.132a.706.706,0,0,1-.271.011c-.059-.018-.077-.051-.011-.088a2.443,2.443,0,0,0-.329.216,1.474,1.474,0,0,0-.234.227c-.106.077-.066-.11.015-.172a1.447,1.447,0,0,0-.491.392c.194-.161.271-.117.3-.058a.345.345,0,0,1,.029.081q-.121.1-.242.231a1.735,1.735,0,0,0-.165.088c-.146.1-.311.2-.45.3a.376.376,0,0,1,.183,0c-.066,0-.267.234-.505.513s-.505.608-.677.831l.055-.066c.048-.033,0,.047-.077.154a1.747,1.747,0,0,1-.132.169.644.644,0,0,1-.092.088c.022,0,.04-.029.077-.074-.055.132-.143.176-.19.176s-.077-.025-.154.146c.113-.161.143-.128.143-.062-.062.047-.157.165-.227.234a.48.48,0,0,1,.04-.318c-.033-.037-.033-.139-.084-.062v-.22a2.334,2.334,0,0,0-.011-.293c0,.055-.033.1-.073-.1a1.926,1.926,0,0,1,.04.286.521.521,0,0,1,0,.1v.088c0,.114.015.235.055.235a.325.325,0,0,1-.077.11.359.359,0,0,0-.051.213c-.026-.2-.037-.374-.044-.516v-.4L11.56,4.2,11.4,3.548l.029-.037-.1-.1a.54.54,0,0,0,0-.154c-.011-.014-.018.007-.026.044a1,1,0,0,1-.007-.169c-.051-.018-.081.106-.11.238l.077.172c-.011.073-.022.136-.044.15l-.044-.264.011-.058-.022-.055,0,.03L11.154,3.3l.011.015c0-.322.011-.7.117-.425l-.117-.373c0-.231,0-.329,0-.44a4.681,4.681,0,0,0-.062-.523c-.04-.022-.022.135-.073.04a1.166,1.166,0,0,0-.293-.648C10.586.769,10.425.67,10.417.6c-.135-.124-.157-.161-.168-.187s0-.047-.1-.121c.007.018.018.044-.044.011A2.2,2.2,0,0,0,9.861.143c-.113-.011.231.117-.077.051A2.226,2.226,0,0,0,9.136.026,1.644,1.644,0,0,0,8.517.08C8.2.154,8.261.117,8.33.062s.161-.106-.11-.011a1.15,1.15,0,0,1-.4.319C7.737.4,7.7.4,7.642.417A.923.923,0,0,0,7.4.545l.066.047c-.216.165-.37.308-.33.348a1.37,1.37,0,0,0-.33.333c-.286.271.062-.322.121-.41a2.809,2.809,0,0,0-.483.74l.227-.245c-.37.612-.505.451-.579.809.143-.194.355-.392.3-.256l-.249.249c-.007.044.136-.146.055-.007-.073.066-.231.2-.3.256h0c-.128.165-.264.326-.392.49.07-.1.11-.1.04,0l-.278.3c.092-.088.033.029-.07.186-.289.443-.392.242-.568.626.037-.051.048-.055.084-.106l-.1.194c-.081-.029-.26.231-.443.487s-.351.52-.432.494c-.11.289.022.037.3-.246l-.135.3c.077-.106.124-.205.216-.315a3.281,3.281,0,0,1-.619.853c-.066.15.172-.04-.091.337-.359.545-.044-.172-.256.157l-.07.289a5.679,5.679,0,0,0-.619,1.139.689.689,0,0,1-.1.136c-.176.414-.487.813-.608,1.131.048-.066-.026.2-.022.249-.1.18-.2.359-.289.542.125-.241.169-.212.231-.238-.081.172-.143.246-.194.366.044-.07.092-.136.073-.033l-.308.567a1.155,1.155,0,0,1,.051-.168,3.409,3.409,0,0,0-.245.7c.026-.011.07-.08.092-.092a.555.555,0,0,1,.161-.369c-.154.414-.026.11-.062.322-.106.293-.209.392-.22.3a4.136,4.136,0,0,1-.267.783l.084-.048c-.04.1-.081.2-.114.311.048-.077.1-.158.154-.235-.132.622-.146.081-.3.769l.059.018c-.092.256-.2.326-.183.545-.092.253.018-.458-.128.146,0,.114-.026.348-.04.528-.055.164-.048-.073-.026-.224-.161.842.092.56-.084,1.359-.007-.29-.143.227-.059-.451-.07.319-.007.645-.088.975l.092-.213a2.077,2.077,0,0,1-.059.322l.059-.022a1.9,1.9,0,0,0-.07.571A.823.823,0,0,1,0,16.587c.114-.172-.018.315.037.48.062-.344.007-.985.106-1.029.022.161-.026.3,0,.457a1.71,1.71,0,0,1,.066-.3,2.556,2.556,0,0,1-.026.648c-.022.179-.048.333-.055.494,0-.187-.007-.377.007-.564-.1.048-.015.253-.084.414.066.282-.011.509.051.736-.007-.062,0-.066,0-.128A3.635,3.635,0,0,0,.374,18.8c.044.231.073.689,0,.535,0,.2-.1-.813-.172-.447.2.326.062.732.359,1.454C.52,20,.7,20.5.652,20.208a1.724,1.724,0,0,1,.077.539l.073.091a2.5,2.5,0,0,0,.146.835c-.058-.238.169.245.132.062a2.926,2.926,0,0,1,.176.513l0-.026a3.269,3.269,0,0,0,.3.583c.077.12.132.241.282.542L1.772,23.3c.1.194.2.4.319.615s.264.41.4.619a14.656,14.656,0,0,0,.9,1.164c-.081-.073-.157-.154-.238-.231.04.029.132.165.26.3a1.755,1.755,0,0,0,.41.348l-.161-.143c.026-.014.143.022.322.15l.04.092.1.026c.282.187-.124,0,.165.187a.9.9,0,0,1,.3.117c.139.059.3.154.472.227a2.438,2.438,0,0,0,.868.256c.19.161-.612-.183-.4-.022a2.434,2.434,0,0,1,.366.074l-.092.033a6.023,6.023,0,0,0,.663.132l.538.04.52,0,.6-.055-.037,0a2.013,2.013,0,0,1,.641-.1c.055-.048-.172.007-.055-.051a1.552,1.552,0,0,0,.78-.264l.308-.187a.782.782,0,0,1,.267-.128c-.044-.036.044-.15.128-.253a5.865,5.865,0,0,0,.567-.421,24.179,24.179,0,0,0,6.58-8.184l0,0,0-.011c.077-.161.146-.323.22-.483.026-.04.048-.062.066-.062.015-.066-.015-.029-.036-.008l.055-.128.084-.154-.018-.014c.132-.319.256-.645.37-.974l-.011.055.033-.118c.125-.374.242-.754.344-1.142.026-.048.062-.135.092-.2.026-.165.073-.363.121-.568l.11-.637.1-.557c.011-.069.015-.132.018-.187.084-.593.143-1.2.168-1.816.037-.07.07-.114.1-.114a2.364,2.364,0,0,0-.055.809,3.416,3.416,0,0,1,.132-.685c-.077-.256-.048.461-.106.125a1.5,1.5,0,0,1,.059-.322c-.04.114-.051-.158-.07-.209l.007-.381L19.07,9.52c-.018-.224-.037-.454-.048-.751l0,0c0-.132-.011-.26-.018-.388.033-.2.081-.363.125-.293-.029-.344-.07-.355-.073-.648.121.454-.022-.092.055-.15-.018-.3-.051-.1-.081-.234,0-.048.015-.172.037-.183-.044-.088-.073.007-.1.1-.026.07-.051.132-.084.121l-.007-.1c-.018-.117-.037-.235-.059-.352l.033,0-.015-.084-.029.026c-.029-.143-.062-.289-.1-.432a.317.317,0,0,1,.33.124c.044-.037-.117-.271-.161-.4-.18-.348-.114-.583-.253-.872l.04.242a3.13,3.13,0,0,1-.176-.568c-.029,0-.044.274-.124.15a3.35,3.35,0,0,1-.216-.729c-.04-.2-.055-.351-.011-.355a4.162,4.162,0,0,1,.154.432l.124.418C18.484,4.591,18.235,3.991,18.323,3.991Zm-6.935,0a1.4,1.4,0,0,1-.059-.289A.745.745,0,0,1,11.388,3.995ZM6.8,1.281c-.088.139-.117.223-.238.264C6.573,1.472,6.727,1.347,6.8,1.281Z" transform="translate(25.235 0)" fill="#934c51"/>
    <path id="Path_99" data-name="Path 99" d="M.037.061A.058.058,0,0,0,0,.028C0-.012.015-.015.037.061Z" transform="translate(36.531 3.106)" fill="#934c51"/>
    <path id="Path_100" data-name="Path 100" d="M.022,0,.016.014,0,.022Z" transform="translate(27.588 7.717)" fill="#934c51"/>
    <path id="Path_101" data-name="Path 101" d="M.051.169A.569.569,0,0,0,0,0C.011-.006.037.034.051.169Z" transform="translate(44.297 6.868)" fill="#934c51"/>
    <path id="Path_102" data-name="Path 102" d="M.077,0,.029.154A.458.458,0,0,0,0,0Z" transform="translate(44.155 12.427)" fill="#934c51"/>
    <path id="Path_103" data-name="Path 103" d="M.066.181C.04.215-.015.548,0,.24.026.207.117-.243.066.181Z" transform="translate(44.308 11.367)" fill="#934c51"/>
    <path id="Path_104" data-name="Path 104" d="M.261.227A1.759,1.759,0,0,0,.027.058C-.014.025-.014.011.063,0A.536.536,0,0,1,.25.106.1.1,0,0,1,.287.157C.294.187.3.209.473.308.543.388.188.146.261.227Z" transform="translate(42.085 2.442)" fill="#934c51"/>
    <path id="Path_105" data-name="Path 105" d="M0,0,.1.092A.65.65,0,0,1,0,0Z" transform="translate(42.345 2.669)" fill="#934c51"/>
    <path id="Path_106" data-name="Path 106" d="M.132,0H.161A1.026,1.026,0,0,1,0,.183,2.114,2.114,0,0,1,.132,0Z" transform="translate(32.316 0.629)" fill="#934c51"/>
    <path id="Path_107" data-name="Path 107" d="M0,.05.034,0,.026.134Z" transform="translate(30.244 3.367)" fill="#934c51"/>
    <path id="Path_108" data-name="Path 108" d="M0,.322C.062.22.15.106.212,0,.062.22.062.4,0,.322Z" transform="translate(28.53 5.492)" fill="#934c51"/>
  </g>
</svg>
