<svg xmlns="http://www.w3.org/2000/svg" width="11.849" height="13.048" viewBox="0 0 11.849 13.048">
  <path id="Path_8439" data-name="Path 8439" d="M11.84,9.79,11.834,9.7a.292.292,0,0,1,0-.042l-.005-.029c-.005-.07-.011-.139-.018-.209l0-.008,0-.012c-.008-.084-.018-.167-.027-.25,0-.035.008-.06.016-.065-.01-.043-.015.007-.022.013l0-.018,0-.153a.009.009,0,0,0-.013,0q-.074-.593-.2-1.173a.908.908,0,0,0,0-.129c-.093-.3-.222-.836-.3-1.017-.092-.29-.2-.576-.312-.858,0-.051,0-.082.022-.091a1.271,1.271,0,0,0,.149.4A2.07,2.07,0,0,1,11.03,5.7c-.093-.106.079.229-.022.081a.766.766,0,0,1-.043-.166c.006.063-.06-.063-.079-.083-.122-.264-.207-.408-.355-.681l-.008-.007c-.03-.057-.061-.113-.092-.17-.029-.1-.041-.193-.006-.17-.086-.157-.109-.154-.18-.29.164.185-.031-.036-.008-.081-.079-.135-.047-.035-.094-.091-.01-.025-.031-.085-.024-.095-.069-.055,0,.143-.039.142-.042-.066-.087-.132-.131-.2l.014-.008-.025-.037-.008.018c-.043-.064-.087-.128-.132-.19a.167.167,0,0,1,.179,0c.013-.024-.1-.108-.149-.16-.154-.133-.158-.263-.275-.381.021.037.041.074.061.112A1.475,1.475,0,0,1,9.434,3c-.014,0,.023.143-.037.1-.193-.223-.318-.485-.275-.5.089.125.176.249.262.375.039-.012-.182-.269-.138-.283-.093-.1-.193-.2-.288-.306.035.04.136.168.078.133-.118-.135-.067-.065-.16-.143.054.092.122.226.181.355l.025.058c-.078-.09-.157-.177-.236-.265C8.8,2.4,8.772,2.3,8.758,2.258c-.118-.111-.133-.016-.117.021a.953.953,0,0,1-.186-.258.7.7,0,0,0-.2-.252l.1.069c-.052-.056-.267-.231-.235-.221-.062-.027-.138-.028-.092.028l-.173-.237c.028.032-.032.062-.025.081-.089-.071-.11-.174-.046-.138A1.961,1.961,0,0,0,7.462,1.2c-.052-.041.042-.049.085-.027A1.351,1.351,0,0,0,7.294.993c.132.112.07.141.025.17-.047-.033-.095-.067-.143-.1C7.1.966,7.019.87,6.937.771a.193.193,0,0,1,.011.095c0-.037-.141-.127-.309-.226A3.975,3.975,0,0,0,6.118.4L6.16.418C6.2.45,6.059.4,5.952.359,5.751.336,5.733.2,5.522.187c.18.044.206.082.192.1C5.679.268,5.632.25,5.583.233L5.432.187C5.339.159,5.274.131,5.317.109c-.1-.014-.182-.035-.18,0C5.017.073,4.9.029,4.774,0c.028.009.05.031-.063.023a1.166,1.166,0,0,1,.3.063.549.549,0,0,0,.22.035c0,.04-.083.043,0,.1C5.136.195,5.051.174,4.974.148S4.829.1,4.76.079a1.53,1.53,0,0,0-.2-.052A1.155,1.155,0,0,0,4.365,0a1.128,1.128,0,0,0-.183.042A1.163,1.163,0,0,0,4,.1L3.984.093,3.938.156a.2.2,0,0,0-.084.019c-.006.007.007.007.026.006a.634.634,0,0,1-.088.03c0,.028.069.024.137.017.027-.019.055-.037.084-.056.043,0,.079,0,.082.013C4.053.2,4.011.213,3.968.23H3.929L3.906.249,3.933.243,3.892.262,3.906.249,3.782.283c-.038.011-.072.026-.1.032C3.632.33,3.611.323,3.671.267l-.083.07-.075.08A.656.656,0,0,0,3.392.5c-.03.023-.052.041-.075.062s-.041.047-.07.082L3.2.705c-.019.024-.035.055-.057.088.006.023.056-.047.04.008A.422.422,0,0,0,3.1.969a.631.631,0,0,0-.029.185c-.009.117.008.209-.014.234-.014.181-.04.076-.044.193,0-.006.012-.018.017.016s-.014.1-.015.143c.021.052,0-.129.041.022a2.929,2.929,0,0,0,.122.6c.064.287-.093-.105-.026.134.034.029.072.051.113.2a.363.363,0,0,1,0,.049c0,.013,0,.029-.007.03a.091.091,0,0,0-.015.03l.043.009a.162.162,0,0,0,.049.11.06.06,0,0,0,0,.038v.009l-.007,0H3.31a.146.146,0,0,1-.062-.086.189.189,0,0,0-.029-.049A.254.254,0,0,0,3.192,2.8a.161.161,0,0,1,.023.031.013.013,0,0,1,0,.009.162.162,0,0,0-.01.037l.054.038A.08.08,0,0,1,3.2,2.9a.141.141,0,0,1-.038-.033l-.01-.011a.389.389,0,0,0-.035-.018.288.288,0,0,0-.105-.013.82.82,0,0,1,.084.043l.037.023.014.012c.017.017.028.034.005.036-.022-.018-.081-.056-.132-.088-.024,0,.09.052.01.027-.042-.03-.129-.1-.165-.128v0l-.29-.15c.057.026.064.045.007.02L2.4,2.511c.055.038-.01.02-.1-.018-.258-.107-.166-.179-.391-.226.032.011.035.018.066.029-.037-.009-.077-.016-.115-.024,0-.044-.161-.107-.343-.14s-.379-.016-.4-.055c-.095.034-.095.039-.043.036a.9.9,0,0,1,.275.016,1.338,1.338,0,0,0-.193.03l.111-.007a.736.736,0,0,1,.114.008c-.125.009-.244.019-.352.032a1.645,1.645,0,0,0-.271.063c-.04.03-.015.034-.012.047s-.016.029-.129.1c-.294.226.013-.095-.165.043-.029.052-.06.1-.083.15a.9.9,0,0,0-.231.322,1.391,1.391,0,0,0-.1.35.79.79,0,0,1-.027.093,2.278,2.278,0,0,0,.028.725c0-.044.055.1.071.114l.064.312c-.029-.138,0-.139.014-.171.026.1.025.144.041.21,0-.042-.006-.084.02-.038l.058.33a.676.676,0,0,1-.034-.084,2.2,2.2,0,0,0,.118.363C.4,5.113.4,5.07.4,5.058a.3.3,0,0,1-.048-.2c.065.22.024.054.074.152.046.155.036.229,0,.195a1.82,1.82,0,0,1,.125.41l.022-.045.044.167,0-.145c.128.3-.037.076.1.416l.029-.009c.036.136.005.2.076.29.03.135-.12-.2-.015.1a1.791,1.791,0,0,1,.127.243c.021.086-.038-.018-.068-.09.152.412.195.22.32.625-.077-.129-.006.138-.141-.188.047.163.168.288.209.462l-.01-.121a1.089,1.089,0,0,1,.05.162l.022-.026c.041.219.191.355.186.5.009-.105.067.147.127.214-.048-.175-.227-.459-.19-.5.048.069.058.146.107.212a.738.738,0,0,1-.041-.157,2.929,2.929,0,0,1,.227.552C1.69,8.181,1.647,8.093,1.608,8c-.035.043.051.121.055.212.091.118.112.237.184.335-.015-.028-.012-.032-.028-.06a2.248,2.248,0,0,0,.337.423c.071.1.173.316.11.255.042.094-.212-.368-.171-.179.163.113.169.339.443.636-.077-.159.093.06.021-.079a.9.9,0,0,1,.13.252l.054.031a1.359,1.359,0,0,0,.2.39c-.031-.057,0-.031.03,0s.069.056.044.014a1.546,1.546,0,0,1,.169.226l-.007-.012a1.544,1.544,0,0,0,.234.25,1.911,1.911,0,0,1,.216.231L3.6,10.912a6.68,6.68,0,0,0,1.136.986l-.142-.088c.023.011.084.063.158.119a1.323,1.323,0,0,0,.232.14c-.025-.017-.065-.049-.09-.063.012-.01.074,0,.172.056l.025.044.049.008c.147.09-.062,0,.088.092a1.309,1.309,0,0,1,.4.167,1.678,1.678,0,0,0,.437.16c.089.094-.3-.125-.2-.031a1.154,1.154,0,0,1,.181.057l-.046.012a3.068,3.068,0,0,0,.324.109l.264.08c.17.038.33.084.554.141l-.016-.01a.835.835,0,0,1,.318.086c.036-.007-.079-.038-.013-.037a.866.866,0,0,0,.415.075,1.039,1.039,0,0,1,.335.032c-.007-.027.061-.047.127-.068.122.01.247.018.374.024A2.883,2.883,0,0,0,11.84,9.79ZM3.309,2.971c-.017,0-.033.013-.074-.045C3.236,2.906,3.279,2.949,3.309,2.971ZM4.248.085a.894.894,0,0,1-.155.041A.448.448,0,0,1,4.248.085Z" fill="#934c51"/>
</svg>
