<svg xmlns="http://www.w3.org/2000/svg" width="15.602" height="12.145" viewBox="0 0 15.602 12.145">
  <path id="Path_8440" data-name="Path 8440" d="M12.572.149l-.1-.011A.229.229,0,0,1,12.425.13h-.032L12.155.1l-.009,0H12.13c-.094-.009-.19-.018-.286-.025-.037-.011-.064-.021-.067-.032-.051,0,0,.019.009.027h-.021l-.172-.03,0,.016c-.454-.03-.905-.041-1.356-.032A1.006,1.006,0,0,0,10.089,0c-.357.037-.983.069-1.2.119Q8.369.18,7.858.284C7.8.275,7.766.263,7.76.24A1.491,1.491,0,0,0,8.238.16a2.44,2.44,0,0,1-.415.02C7.684.259,8.1.138,7.91.22a.758.758,0,0,1-.2.012C7.785.24,7.631.286,7.6.3c-.321.08-.5.144-.839.252L6.756.563,6.545.63c-.122.011-.225,0-.192-.03-.193.064-.2.089-.362.14C6.232.6,5.941.767,5.9.731c-.169.061-.05.044-.122.085-.028.007-.1.018-.11.007-.076.066.16.025.151.073-.083.034-.167.069-.25.1L5.56.983,5.514,1l.018.014c-.08.034-.162.069-.241.106a.19.19,0,0,1,.036-.2c-.025-.02-.144.094-.211.135-.183.142-.328.119-.486.226.046-.016.092-.032.138-.044a1.66,1.66,0,0,1-.319.147c0,.018.165.005.1.064-.291.167-.611.25-.618.2.158-.072.316-.145.476-.213-.005-.048-.341.145-.346.092-.137.082-.27.172-.4.257.051-.03.217-.115.165-.059-.176.1-.087.06-.193.147.114-.039.279-.087.437-.126l.069-.014c-.117.067-.233.137-.348.206-.142.027-.259.037-.309.044-.149.108-.048.145,0,.135a1.12,1.12,0,0,1-.33.154.785.785,0,0,0-.325.17l.1-.1c-.075.046-.318.25-.3.217-.043.064-.06.149.011.108l-.3.144c.043-.025.062.048.087.045-.1.083-.22.087-.165.021a2.3,2.3,0,0,0-.241.328c-.057.05-.046-.059-.011-.1a1.537,1.537,0,0,0-.254.247c.154-.122.174-.048.2.009-.046.046-.094.092-.14.14-.126.064-.252.133-.38.2a.229.229,0,0,1,.108.007c-.043,0-.17.131-.319.3a4.451,4.451,0,0,0-.38.532L.855,4.5c.044-.034-.037.11-.11.222-.069.22-.229.21-.286.444C.546,4.971.6,4.95.61,4.97a1.342,1.342,0,0,0-.087.137l-.082.158c-.053.1-.1.165-.114.112-.035.1-.078.2-.041.2-.064.13-.137.247-.193.385.016-.028.044-.05.012.076A1.273,1.273,0,0,1,.239,5.72a.62.62,0,0,0,.087-.24c.044.012.03.1.11.016-.05.1-.092.192-.138.271s-.089.153-.122.226a1.725,1.725,0,0,0-.1.209A1.163,1.163,0,0,0,0,6.42a1.436,1.436,0,0,0,.007.215,1.408,1.408,0,0,0,.032.211l-.018.02.062.066a.179.179,0,0,0,0,.1C.095,7.037.1,7.023.1,7a.869.869,0,0,1,.014.1c.03.009.041-.073.05-.151-.016-.034-.03-.069-.044-.1.009-.05.018-.089.032-.091.005.051.012.1.021.153l-.009.042.018.032a.2.2,0,0,1,0-.032l.012.05L.182,6.988l.011.145c.005.046.014.085.016.117,0,.062-.007.083-.059,0l.06.11.075.1a.789.789,0,0,0,.067.155c.02.037.036.066.053.1s.044.057.076.1l.057.069c.025.025.055.05.089.082.027,0-.043-.071.018-.042a.463.463,0,0,0,.17.128.679.679,0,0,0,.2.071c.13.035.236.035.257.066.2.057.078.062.208.092-.005-.005-.016-.018.021-.016s.1.036.158.048c.062-.012-.146-.026.032-.042a3.365,3.365,0,0,0,.7-.006c.337-.01-.137.082.146.057.039-.032.073-.069.25-.084a.285.285,0,0,1,.055.012l.032.014a.094.094,0,0,0,.03.023l.02-.046a.182.182,0,0,0,.133-.032.075.075,0,0,0,.043.012H3.11l0,.009L3.1,8.239a.153.153,0,0,1-.11.05.271.271,0,0,0-.06.021.241.241,0,0,0-.044.025.117.117,0,0,1,.039-.018l.009,0,.041.02.053-.052A.094.094,0,0,1,3,8.351a.174.174,0,0,1-.044.036l-.014.009a.21.21,0,0,0-.028.035.315.315,0,0,0-.037.114.979.979,0,0,1,.066-.085l.034-.037.018-.012c.021-.014.044-.023.041,0-.025.019-.08.08-.126.128-.005.027.078-.089.032,0-.044.041-.135.122-.179.156l0,0-.231.293c.041-.057.066-.06.023,0L2.39,9.16c.055-.052.02.018-.039.11-.178.266-.238.147-.337.39.018-.034.027-.035.046-.067-.018.039-.036.082-.051.122-.05-.014-.154.158-.231.355s-.1.421-.147.437c.018.112.025.114.032.055a1,1,0,0,1,.076-.305,1.348,1.348,0,0,0-.009.224l.016-.128c.009-.039.02-.082.034-.126-.016.142-.032.279-.039.4a1.693,1.693,0,0,0,.012.316c.023.052.034.025.05.023s.028.027.087.167c.188.378-.1-.035.012.194a1.957,1.957,0,0,0,.151.126,1.012,1.012,0,0,0,.312.328,1.538,1.538,0,0,0,.371.181.727.727,0,0,1,.1.051,2.6,2.6,0,0,0,.818.124c-.05-.007.119-.041.144-.055l.362-.005c-.16,0-.156-.027-.188-.051.114-.009.167,0,.245,0-.048-.005-.1-.011-.039-.03L4.557,12a.745.745,0,0,1-.1.02,2.684,2.684,0,0,0,.431-.055c-.012-.009-.06-.014-.073-.025a.337.337,0,0,1-.238.011c.259-.025.064-.014.186-.049.183-.02.263.009.217.039a2.1,2.1,0,0,1,.486-.052l-.044-.034.2-.014-.163-.027c.367-.076.076.059.486-.023l0-.034c.16-.012.224.037.341-.025.158,0-.256.092.108.039a2.054,2.054,0,0,1,.3-.091c.1,0-.027.039-.114.057.493-.082.288-.17.768-.224-.162.059.153.037-.241.117.192-.018.358-.126.563-.133l-.137-.016a1.35,1.35,0,0,1,.192-.021l-.025-.03c.256,0,.438-.137.6-.1-.114-.034.181-.042.268-.1-.208.018-.563.156-.6.1.087-.037.176-.032.259-.073a.94.94,0,0,1-.183.012,3.267,3.267,0,0,1,.666-.135c-.108.026-.215.055-.323.08.041.05.147-.032.248-.014.153-.076.291-.075.415-.135-.035.011-.039.007-.073.018a2.534,2.534,0,0,0,.547-.286c.13-.059.39-.126.309-.069.114-.027-.458.16-.238.153.163-.158.417-.116.807-.359-.193.052.089-.09-.083-.041a1.058,1.058,0,0,1,.311-.09l.046-.053a1.563,1.563,0,0,0,.481-.146c-.069.023-.035-.005,0-.036s.078-.064.027-.046a1.786,1.786,0,0,1,.289-.14l-.016.005a1.731,1.731,0,0,0,.33-.208,1.949,1.949,0,0,1,.307-.192l-.025.034a7.7,7.7,0,0,0,1.349-1.059l-.128.14c.018-.023.089-.082.167-.151a1.478,1.478,0,0,0,.206-.229c-.023.023-.067.06-.087.085-.011-.016.014-.082.1-.179l.055-.02.02-.053c.133-.146-.009.071.122-.078a1.47,1.47,0,0,1,.272-.41,1.936,1.936,0,0,0,.273-.456c.124-.078-.2.312-.078.22a1.211,1.211,0,0,1,.1-.192l0,.057a3.433,3.433,0,0,0,.193-.341l.146-.277c.08-.183.165-.352.277-.593l-.014.018a.94.94,0,0,1,.165-.339c0-.041-.06.082-.044.009a1,1,0,0,0,.172-.449,1.207,1.207,0,0,1,.108-.369c-.032,0-.041-.078-.05-.156.039-.135.074-.274.106-.414A3.289,3.289,0,0,0,12.572.149ZM3.1,8.241c0,.019.009.039-.067.073C3.013,8.308,3.071,8.269,3.1,8.241ZM.072,6.569a.971.971,0,0,1,.012.183A.488.488,0,0,1,.072,6.569Z" fill="#934c51"/>
</svg>
