<svg xmlns="http://www.w3.org/2000/svg" width="21.9" height="21.508" viewBox="0 0 21.9 21.508">
  <g id="Group_7" data-name="Group 7" transform="translate(21.9 21.508) rotate(180)">
    <path id="Path_109" data-name="Path 109" d="M4.535,8.752l.035-.047.019-.021L4.6,8.67l.087-.11,0,0,0-.007.1-.134c.019-.016.031-.026.038-.023.014-.026-.009,0-.016,0l.007-.01L4.891,8.3l-.007-.007c.157-.216.3-.436.437-.662a.561.561,0,0,0,.059-.063c.092-.188.27-.507.314-.634.087-.183.164-.368.237-.559.021-.026.04-.04.052-.035a.853.853,0,0,0-.108.26,1.535,1.535,0,0,1,.12-.211c0-.092-.066.148-.047.031A.409.409,0,0,1,6,6.321c-.026.033,0-.056,0-.075.061-.186.085-.293.136-.5V5.743l.033-.124c.033-.063.066-.113.073-.085.031-.117.019-.124.045-.223,0,.164,0-.033.033-.045.023-.1-.007-.037,0-.087.007-.016.023-.056.03-.056-.007-.059-.061.071-.082.052l.026-.155.009,0,0-.03L6.29,5c.007-.049.016-.1.023-.153a.113.113,0,0,1,.089.08c.016,0,0-.1,0-.145-.014-.134.042-.2.04-.31l-.021.082a.911.911,0,0,1,.026-.2c-.009,0-.054.08-.061.031.007-.2.063-.383.092-.369-.014.1-.026.2-.042.3.024.012.033-.214.061-.2,0-.094,0-.188,0-.281,0,.035-.009.143-.021.1a.362.362,0,0,0-.014-.141,2.336,2.336,0,0,1-.073.254l-.014.04c0-.078,0-.157,0-.235.033-.08.063-.141.075-.166-.007-.108-.056-.07-.066-.045a.653.653,0,0,1,.026-.211.463.463,0,0,0,.016-.214l.019.08a2.051,2.051,0,0,1-.014-.216c-.019-.04-.054-.075-.059-.028L6.4,2.854c0,.028-.042.014-.049.028-.009-.075.026-.136.042-.089A1.477,1.477,0,0,0,6.3,2.573c0-.042.045-.005.054.026a.909.909,0,0,0-.042-.2c.014.115-.031.1-.066.094l-.023-.113c.007-.082.012-.164.016-.251a.164.164,0,0,1-.038.051.654.654,0,0,0-.049-.251,2.746,2.746,0,0,0-.146-.352l.012.026c0,.033-.042-.052-.075-.122-.087-.1-.03-.178-.129-.279.068.1.063.134.049.134a.927.927,0,0,0-.042-.084l-.052-.089c-.033-.056-.052-.1-.021-.092-.04-.049-.073-.1-.087-.082C5.619.913,5.581.843,5.53.77c.009.019.012.037-.04-.016A.765.765,0,0,1,5.6.918a.355.355,0,0,0,.092.117c-.019.016-.061-.016-.042.049-.033-.056-.066-.106-.092-.153S5.516.84,5.49.8A1.3,1.3,0,0,0,5.417.686a.83.83,0,0,0-.084-.1A1.047,1.047,0,0,0,5.225.521,1,1,0,0,0,5.11.469l0-.014-.052.01A.122.122,0,0,0,5,.437s0,.007.012.014L4.957.425c-.012.014.023.045.061.073l.066.01c.021.021.038.038.033.044C5.091.538,5.063.526,5.035.514L5.018.5,5,.5,5.013.5,4.983.5H5L4.92.455,4.859.427C4.826.411,4.819.4,4.873.4L4.8.394l-.07,0a.462.462,0,0,0-.1-.014L4.567.38,4.495.39,4.443.4,4.375.413c-.007.014.049,0,.016.023a.262.262,0,0,0-.117.044.389.389,0,0,0-.1.078c-.059.052-.092.106-.113.106-.092.082-.056.019-.11.075,0,0,.014,0,0,.016a.926.926,0,0,0-.07.061c-.014.035.056-.063.009.031a1.834,1.834,0,0,0-.214.347c-.1.169,0-.094-.075.054,0,.031.014.058-.035.15l-.023.023-.016.012-.021.007.016.023a.11.11,0,0,0-.026.077l-.019.017,0,0,0,0-.007,0a.112.112,0,0,1,.009-.07l.009-.037,0-.031,0,.026,0,0L3.46,1.46l.009.042c-.012,0-.019-.021-.023-.033a.189.189,0,0,1,0-.033V1.425L3.434,1.4a.258.258,0,0,0-.045-.056l.021.061.007.028,0,.012c0,.016,0,.03-.014.021s-.014-.066-.024-.1c-.012-.012.019.066-.007.016-.007-.033-.021-.1-.023-.136v0L3.279,1.04c.014.04.009.051-.007.014L3.234.915c.009.042-.014,0-.042-.054C3.117.69,3.194.7,3.105.573l.019.045L3.079.554C3.1.533,3.049.427,2.974.328S2.8.148,2.8.122C2.744.094,2.739.1,2.767.12a.623.623,0,0,1,.127.132A.652.652,0,0,0,2.786.178l.059.047A.6.6,0,0,1,2.9.282C2.831.228,2.77.178,2.709.136a.968.968,0,0,0-.16-.092c-.033,0-.023.01-.028.016S2.5.068,2.413.054c-.246-.023.049-.04-.1-.054C2.274.012,2.239.021,2.2.035a.594.594,0,0,0-.258.052.842.842,0,0,0-.207.129L1.683.249a1.458,1.458,0,0,0-.314.366C1.387.591,1.352.686,1.352.7l-.11.181C1.289.8,1.3.814,1.326.8c-.033.059-.054.082-.075.122.016-.021.035-.044.026-.009l-.122.188a.416.416,0,0,1,.021-.056,1.523,1.523,0,0,0-.106.23L1.1,1.251a.212.212,0,0,1,.07-.122c-.068.138-.014.037-.033.108-.049.1-.087.129-.087.1a1.241,1.241,0,0,1-.127.256l.03-.012-.054.1.066-.073c-.077.207-.054.021-.141.249l.019.009c-.045.082-.089.1-.094.176-.047.08.033-.155-.054.043a1.34,1.34,0,0,1-.047.176c-.028.049-.012-.026.007-.075-.113.27,0,.195-.127.451.019-.1-.066.063.016-.157C.5,2.577.5,2.694.441,2.8l.049-.063a.666.666,0,0,1-.049.1l.023,0c-.08.127-.07.26-.138.329.054-.047-.033.1-.035.162.056-.108.1-.326.136-.331-.007.054-.038.1-.045.15a.634.634,0,0,1,.052-.094,1.928,1.928,0,0,1-.141.371c.021-.061.04-.124.061-.185-.038.007-.031.084-.07.129-.009.1-.052.167-.061.247l.012-.043a1.561,1.561,0,0,0-.026.362C.2,4.009.15,4.161.146,4.1c-.021.066.063-.277,0-.164.028.129-.07.242-.073.512.035-.113.019.07.047-.031a.564.564,0,0,1-.052.18l.012.04A.938.938,0,0,0,0,4.924c.012-.042.014-.016.016.012s.009.059.016.028a1,1,0,0,1-.021.185l0-.009a.983.983,0,0,0,0,.228,1.2,1.2,0,0,1,0,.211L0,5.558a4.528,4.528,0,0,0,.106,1L.08,6.448A.944.944,0,0,1,.1,6.577a1.021,1.021,0,0,0,.049.174c0-.019-.009-.054-.014-.07.009,0,.035.033.059.105l-.009.033.021.026c.031.11-.033-.026,0,.085a.793.793,0,0,1,.12.263,1.177,1.177,0,0,0,.141.275c0,.087-.092-.2-.085-.106a.808.808,0,0,1,.063.11L.42,7.454a2.185,2.185,0,0,0,.108.2l.092.157c.066.1.122.19.206.321l0-.014a.547.547,0,0,1,.117.188c.021.012-.021-.054.009-.026a.594.594,0,0,0,.169.225.732.732,0,0,1,.15.169c.007-.016.049,0,.092.023.056.061.113.122.171.181A1.922,1.922,0,0,0,4.535,8.752Zm-1.066-7.2c-.009,0-.021-.007-.014-.054C3.464,1.488,3.464,1.528,3.469,1.551ZM5.236.573A.566.566,0,0,1,5.143.521.264.264,0,0,1,5.236.573Z" transform="translate(8.101 0.009)" fill="#934c51"/>
    <path id="Path_110" data-name="Path 110" d="M.012.047,0,0Z" transform="translate(11.323 0.878)" fill="#934c51"/>
    <path id="Path_111" data-name="Path 111" d="M0,.006,0,.017C0,0,0-.006,0,.006Z" transform="translate(11.452 1.236)" fill="#934c51"/>
    <path id="Path_112" data-name="Path 112" d="M0,0A.439.439,0,0,1,.1.012.646.646,0,0,0,0,0Z" transform="translate(12.973 0.406)" fill="#934c51"/>
    <path id="Path_113" data-name="Path 113" d="M.061.011,0,.04C.073-.026.049.009.061.011Z" transform="translate(9.718 0.247)" fill="#934c51"/>
    <path id="Path_114" data-name="Path 114" d="M0,0,.007.014Z" transform="translate(8.253 6.76)" fill="#934c51"/>
    <path id="Path_115" data-name="Path 115" d="M0,0,0,0C0,.014,0,.012,0,0Z" transform="translate(14.236 5.757)" fill="#934c51"/>
    <path id="Path_116" data-name="Path 116" d="M.013,0V.01C-.008.052,0,.033.013,0Z" transform="translate(8.47 3.152)" fill="#934c51"/>
    <path id="Path_117" data-name="Path 117" d="M0,0V.006L0,0Z" transform="translate(14.41 2.4)" fill="#934c51"/>
    <path id="Path_118" data-name="Path 118" d="M.038,0A.361.361,0,0,0,.063.16L0,.12Z" transform="translate(14.346 2.242)" fill="#934c51"/>
    <path id="Path_119" data-name="Path 119" d="M0,.024.009,0Z" transform="translate(8.76 2.169)" fill="#934c51"/>
    <path id="Path_120" data-name="Path 120" d="M.021.052A.141.141,0,0,1,0,0Z" transform="translate(14.022 1.434)" fill="#934c51"/>
    <path id="Path_121" data-name="Path 121" d="M0,0H0Z" transform="translate(14.044 1.487)" fill="#934c51"/>
    <path id="Path_122" data-name="Path 122" d="M.025,0l-.019,0C-.005,0,0,0,.025,0Z" transform="translate(13.051 0.427)" fill="#934c51"/>
    <path id="Path_123" data-name="Path 123" d="M.011,0l0,0H0Z" transform="translate(9.778 0.253)" fill="#934c51"/>
    <path id="Path_124" data-name="Path 124" d="M0,.061A.257.257,0,0,0,0,0C.007,0,.007.015,0,.061Z" transform="translate(14.445 5.133)" fill="#934c51"/>
    <path id="Path_125" data-name="Path 125" d="M.054,0,0,.093.014.064Z" transform="translate(13.187 7.932)" fill="#934c51"/>
    <path id="Path_126" data-name="Path 126" d="M.033.01,0,.054A.178.178,0,0,0,.007,0Z" transform="translate(13.804 6.962)" fill="#934c51"/>
    <path id="Path_127" data-name="Path 127" d="M.012.072C.024.065.1-.078.04.06.029.067-.023.175.012.072Z" transform="translate(13.938 6.634)" fill="#934c51"/>
    <path id="Path_128" data-name="Path 128" d="M0,.105C.007.02,0-.024.031.013.045.154.007.049.021.173.012.206.009.07,0,.105Z" transform="translate(14.553 3.434)" fill="#934c51"/>
    <path id="Path_129" data-name="Path 129" d="M0,0,0,.042Z" transform="translate(14.548 3.539)" fill="#934c51"/>
    <path id="Path_130" data-name="Path 130" d="M0,.033A.078.078,0,0,0,0,0L0,.009A.043.043,0,0,1,0,.033Z" transform="translate(11.596 1.436)" fill="#934c51"/>
    <path id="Path_131" data-name="Path 131" d="M.029.008l.008.02L0,0Z" transform="translate(11.29 0.801)" fill="#934c51"/>
    <path id="Path_132" data-name="Path 132" d="M0,0,.042.012Z" transform="translate(10.678 0.031)" fill="#934c51"/>
    <path id="Path_133" data-name="Path 133" d="M0,0A.349.349,0,0,1,.081.019L.116.031C.036.007-.013.026,0,0Z" transform="translate(10.562)" fill="#934c51"/>
    <path id="Path_134" data-name="Path 134" d="M7.153,6.7a14.7,14.7,0,0,0-.519-2.434l-.007-.028L6.62,4.226l-.045-.131v0l0-.009-.054-.155c0-.024,0-.04,0-.045-.014-.026-.009.007-.012.012l0-.01-.026-.1-.009,0c-.094-.242-.2-.481-.317-.713a.453.453,0,0,0-.023-.082l-.214-.364c-.059-.091-.113-.174-.148-.221C5.7,2.3,5.627,2.2,5.552,2.1c-.047-.064-.1-.127-.146-.188-.009-.031-.012-.054,0-.061.045.073.129.218.167.223a1.042,1.042,0,0,1-.117-.209c-.077-.049.089.131,0,.056a.7.7,0,0,1-.059-.1c.017.038-.049-.028-.066-.037a2.118,2.118,0,0,0-.169-.181c-.054-.054-.108-.11-.183-.181l-.007,0c-.031-.031-.061-.063-.092-.092-.038-.059-.061-.11-.035-.1-.087-.08-.1-.075-.174-.146.143.082-.026-.016-.021-.049C4.571.966,4.611,1.023,4.571,1,4.559.983,4.534.95,4.536.943c-.054-.019.035.089,0,.1-.04-.03-.08-.064-.122-.094L4.426.938,4.4.919l0,.014C4.36.9,4.32.872,4.278.844A.112.112,0,0,1,4.39.8c0-.019-.094-.04-.131-.063C4.137.685,4.1.612,4,.565l.063.054a1,1,0,0,1-.171-.11c-.009.007.049.08,0,.068A1.275,1.275,0,0,1,3.67.436C3.613.394,3.581.358,3.592.349c.045.023.089.047.134.075L3.853.5c.021-.014-.181-.12-.16-.136C3.606.335,3.522.3,3.433.267c.033.012.129.061.087.056C3.409.276,3.459.3,3.381.286c.028.019.066.042.1.071s.073.059.108.089l.03.028C3.55.44,3.48.41,3.4.382,3.343.325,3.3.274,3.278.253,3.174.222,3.2.286,3.217.3c-.2-.056-.176-.131-.385-.173l.08.007C2.865.117,2.684.084,2.705.081c-.045,0-.089.031-.045.047L2.484.049c.026.009,0,.044.012.054-.073-.009-.12-.063-.07-.063A1.308,1.308,0,0,0,2.191.06c-.045,0,.007-.045.04-.045A.787.787,0,0,0,2.024,0c.113.019.092.054.075.087-.038,0-.075,0-.113,0L1.924.067,1.834.042,1.743.025A.132.132,0,0,1,1.787.07a.5.5,0,0,0-.256.011,1.188,1.188,0,0,0-.195.056A.879.879,0,0,0,1.17.208L1.2.2c.042,0-.113.07-.176.1.014,0,.028-.012.054-.026C.978.363.9.311.806.424.9.344.931.344.933.361.888.382.823.436.769.471S.68.539.684.506C.642.558.6.6.614.6.553.661.492.72.435.781.447.769.466.762.428.825A.822.822,0,0,1,.56.675a.555.555,0,0,0,.1-.11C.68.581.651.626.715.6A3.311,3.311,0,0,0,.3,1a1.6,1.6,0,0,0-.085.223l-.014,0,.012.049L.182,1.33s.007,0,.016-.009L.17,1.372c.012.014.042-.019.073-.054L.25,1.252c.019-.021.035-.037.042-.035L.257,1.3l-.014.014v.021l0-.012-.007.021,0-.009c-.033.047-.056.1-.075.129S.137,1.5.14,1.452l-.016.136a1.154,1.154,0,0,0-.052.143,1.384,1.384,0,0,0-.042.176c.009.012.021-.04.026,0a.691.691,0,0,0-.009.23c.009.073.023.131.007.145,0,.113-.026.047-.033.12,0,0,.009-.009.012.009l-.021.087c.007.035.014-.08.023.017a2.064,2.064,0,0,0,0,.4C.046,3.107-.015,2.83,0,3c.021.021.042.042.054.146a.53.53,0,0,0-.021.143l.026-.009c.007.087.014.155.033.152a.617.617,0,0,0,.014.155c0,.131-.066-.087-.08-.117a1.262,1.262,0,0,0,.08.284C.1,3.712.1,3.675.1,3.635c.068.235,0,.235.075.336-.016-.082-.021-.181,0-.136l.007.12C.194,3.968.177,3.886.2,3.94c0,.033,0,.106,0,.138v0l.045.214c-.012-.04,0-.052.007-.012l.016.141c0-.045.014,0,.035.058.056.176-.019.157.045.289L.33,4.722.36,4.79c-.049.031.124.413.082.446.061.092.012,0,0-.134.016.033.033.068.052.1C.475,5.158.461,5.125.45,5.076a1.209,1.209,0,0,1,.108.347c.028.049.023-.056.073.1.082.209-.056-.023-.007.1L.691,5.7a1.824,1.824,0,0,0,.2.4.154.154,0,0,1,.019.054c.087.129.138.3.207.392-.009-.026.054.047.068.054l.1.185c-.047-.082-.031-.087-.026-.11.035.056.045.087.068.124-.009-.026-.021-.052,0-.028.033.068.07.129.108.195L1.4,6.923a1.457,1.457,0,0,0,.155.2c0-.009-.012-.035-.009-.045a.183.183,0,0,1-.075-.117c.087.124.026.028.08.08.061.087.073.134.045.12a1.271,1.271,0,0,1,.178.223l0-.033.066.091L1.8,7.355c.153.155,0,.056.169.228l.016-.014c.056.073.054.12.122.157.054.073-.129-.091.016.063a1.145,1.145,0,0,1,.146.11c.045.054-.054-.019-.084-.052A.577.577,0,0,0,2.4,8a.53.53,0,0,1,.186.139c-.085-.052.04.082-.141-.068.077.082.19.117.27.2l-.045-.066a.719.719,0,0,1,.082.078l0-.023c.1.113.23.139.279.218-.033-.061.092.059.15.07-.094-.073-.293-.171-.289-.209.052.021.084.063.136.082a.511.511,0,0,1-.08-.075,3.1,3.1,0,0,1,.329.22c-.056-.03-.113-.066-.169-.1,0,.038.075.047.113.1.094.028.153.084.232.105l-.04-.021a1.2,1.2,0,0,0,.352.073.984.984,0,0,1,.136.045c.04.016.063.028.033.028.063.028-.27-.082-.164-.007a.5.5,0,0,1,.2.035.672.672,0,0,0,.319.035c-.12-.014.07-.031-.035-.04a1.18,1.18,0,0,1,.192.007l.035-.026c.087,0,.1-.009.122-.009a.412.412,0,0,0,.052-.016l.052-.024.073-.044c-.042.021-.021,0,0-.021s.038-.052.009-.033a1.524,1.524,0,0,0,.139-.143l-.007.007a.615.615,0,0,0,.1-.221l.016-.082c0-.033.016-.072.026-.131l.007.023a1.7,1.7,0,0,0,0-.5L5.04,7.36c-.012-.082-.021-.162-.031-.237l.023.106A1.089,1.089,0,0,1,5.019,7.1L5.008,7.01,5,6.977V7c-.009,0-.028-.016-.037-.061l.016,0-.016-.026c0-.031,0-.019.009-.007s.016.019.012,0a.288.288,0,0,1-.033-.082,1.768,1.768,0,0,0,.272.146c.023.035-.021.007-.066-.021L5.12,6.928,5.1,6.919c-.007,0-.009,0,0,.014l.012,0,.021.01a.5.5,0,0,1,.068.035l-.033,0a7.479,7.479,0,0,1,.65.406l-.007-.01a.507.507,0,0,1,.167.136c.026,0-.038-.045,0-.026a.479.479,0,0,0,.251.139c.091.021.174.019.235.037-.007-.019.045-.037.087-.061a.566.566,0,0,0,.218-.087A.769.769,0,0,0,7.153,6.7ZM.112,3.588c.014.052.028.08.009.117C.1,3.684.112,3.619.112,3.588ZM.3,1.1a.97.97,0,0,1-.042.1A.194.194,0,0,1,.3,1.1Z" transform="translate(10.904 12.638)" fill="#934c51"/>
    <path id="Path_135" data-name="Path 135" d="M0,0,.007.047Z" transform="translate(11.164 17.056)" fill="#934c51"/>
    <path id="Path_136" data-name="Path 136" d="M0,.01.007,0C0,.017,0,.024,0,.01Z" transform="translate(11.089 16.716)" fill="#934c51"/>
    <path id="Path_137" data-name="Path 137" d="M0,.092A.694.694,0,0,1,.014,0C.007.028,0,.061,0,.092Z" transform="translate(11.044 13.998)" fill="#934c51"/>
    <path id="Path_138" data-name="Path 138" d="M.014,0,.023.056C-.019-.019.009.009.014,0Z" transform="translate(11.798 18.8)" fill="#934c51"/>
    <path id="Path_139" data-name="Path 139" d="M0,0,0,0C.012.007.009,0,0,0Z" transform="translate(15.879 14.062)" fill="#934c51"/>
    <path id="Path_140" data-name="Path 140" d="M0,0,.007,0C.042.031.026.021,0,0Z" transform="translate(13.933 21.065)" fill="#934c51"/>
    <path id="Path_141" data-name="Path 141" d="M0,0H0Z" transform="translate(12.921 12.639)" fill="#934c51"/>
    <path id="Path_142" data-name="Path 142" d="M0,0A.324.324,0,0,0,.162.009L.11.063Z" transform="translate(12.76 12.632)" fill="#934c51"/>
    <path id="Path_143" data-name="Path 143" d="M0,0A.021.021,0,0,0,.009.016C0,.028,0,.026,0,0Z" transform="translate(11.066 13.994)" fill="#934c51"/>
    <path id="Path_144" data-name="Path 144" d="M0,0,0,0V.011Z" transform="translate(11.809 18.789)" fill="#934c51"/>
    <path id="Path_145" data-name="Path 145" d="M.054.03A.307.307,0,0,0,0,0S.016,0,.054.03Z" transform="translate(15.44 13.579)" fill="#934c51"/>
    <path id="Path_146" data-name="Path 146" d="M0,0,.049.094.033.068Z" transform="translate(17.198 16.014)" fill="#934c51"/>
    <path id="Path_147" data-name="Path 147" d="M0,.019.019,0,.04.052A.137.137,0,0,0,0,.019Z" transform="translate(16.686 15.012)" fill="#934c51"/>
    <path id="Path_148" data-name="Path 148" d="M.035.079c0-.014-.08-.15,0-.03C.039.063.1.161.035.079Z" transform="translate(16.506 14.703)" fill="#934c51"/>
    <path id="Path_149" data-name="Path 149" d="M.018,0c.138.031.023.035.15.059C.2.08.065.04.1.056.018.023-.027.014.018,0Z" transform="translate(13.948 12.782)" fill="#934c51"/>
    <path id="Path_150" data-name="Path 150" d="M0,0,.038.019Z" transform="translate(14.044 12.839)" fill="#934c51"/>
    <path id="Path_151" data-name="Path 151" d="M.023.075,0,.007,0,0A.193.193,0,0,1,.023.075Z" transform="translate(10.929 15.979)" fill="#934c51"/>
    <path id="Path_152" data-name="Path 152" d="M.006.02,0,0,.034.031Z" transform="translate(11.16 17.152)" fill="#934c51"/>
    <path id="Path_153" data-name="Path 153" d="M.045.127C.028.087.016.04,0,0,.028.087.077.124.045.127Z" transform="translate(11.413 18.023)" fill="#934c51"/>
    <path id="Path_154" data-name="Path 154" d="M.016,0,0,.045Z" transform="translate(4.482 19.286)" fill="#934c51"/>
    <path id="Path_155" data-name="Path 155" d="M0,0,.012,0C0,.014,0,.019,0,0Z" transform="translate(4.582 18.958)" fill="#934c51"/>
    <path id="Path_156" data-name="Path 156" d="M.085.052A.755.755,0,0,1,0,0Z" transform="translate(2.752 18.962)" fill="#934c51"/>
    <path id="Path_157" data-name="Path 157" d="M0,0,.065.021C-.034.019.011.01,0,0Z" transform="translate(5.003 20.887)" fill="#934c51"/>
    <path id="Path_158" data-name="Path 158" d="M0,.017,0,0Z" transform="translate(10.084 16.7)" fill="#934c51"/>
    <path id="Path_159" data-name="Path 159" d="M0,.006l0,0C.007,0,.007,0,0,.006Z" transform="translate(4.862 14.025)" fill="#934c51"/>
    <path id="Path_160" data-name="Path 160" d="M0,.018.007.011C.047-.01.03,0,0,.018Z" transform="translate(7.763 19.399)" fill="#934c51"/>
    <path id="Path_161" data-name="Path 161" d="M0,0,0,0,0,.006Z" transform="translate(2.805 16.617)" fill="#934c51"/>
    <path id="Path_162" data-name="Path 162" d="M0,.143A.347.347,0,0,0,.066,0L.1.066Q.046.1,0,.143Z" transform="translate(2.74 16.625)" fill="#934c51"/>
    <path id="Path_163" data-name="Path 163" d="M.016,0,0,.009Z" transform="translate(6.965 20.025)" fill="#934c51"/>
    <path id="Path_164" data-name="Path 164" d="M1.627,2.173c-.066.117-.148.136-.211.225l.066-.052a.91.91,0,0,1-.141.146c0,.009.089-.033.066.012-.115.157-.268.27-.284.244l.207-.218c-.012-.023-.148.153-.164.127-.026.038-.054.075-.08.113l-.075.117c.019-.031.087-.113.073-.07a.372.372,0,0,0-.068.125,2.068,2.068,0,0,1,.2-.167l.031-.021c-.047.061-.092.125-.136.188L1.1,2.948A1.347,1.347,0,0,1,.96,3.03c-.056.091.007.089.028.073-.11.176-.167.136-.272.319l.033-.073a1.151,1.151,0,0,0-.068.113c-.023.044-.042.08-.042.068-.007.045,0,.094.03.057L.54,3.729c.019-.023.045.012.056,0-.033.065-.1.091-.084.047a1.029,1.029,0,0,0-.056.228c-.019.038-.038-.021-.028-.052a.716.716,0,0,0-.08.188c.054-.1.082-.066.106-.04l-.038.1c-.054.063-.106.131-.157.2a.17.17,0,0,1,.059-.021.634.634,0,0,0-.1.23,3.162,3.162,0,0,0-.085.364l0-.028c.021-.035,0,.129-.026.195C.12,5.135.12,5.119.124,5.09c0,.131-.082.157-.07.294.014-.12.033-.141.047-.134-.031.1-.045.324-.082.27,0,.066-.009.12.012.117A1.5,1.5,0,0,0,0,5.891c0-.019.014-.035.021.04C0,5.785.056,5.649.038,5.579c.028,0,.035.052.063-.009a1.669,1.669,0,0,0-.045.589.914.914,0,0,0,.136.214l0,.014L.242,6.4l.03.049c.007,0,0-.007,0-.019L.31,6.48c.016,0,0-.047-.021-.091a.355.355,0,0,1-.054-.037C.225,6.323.221,6.3.228,6.295c.016.023.033.047.052.07l.009.023L.307,6.4.3,6.379l.023.028L.307,6.4l.024.035.028.03L.4,6.52c.023.026.026.042-.026.021A1.074,1.074,0,0,0,.509,6.6l.085.049.059.023.068.021.117.024C.85,6.7.8,6.689.833,6.684a.432.432,0,0,0,.237-.021c.073-.021.124-.054.146-.042.113-.031.054.009.129-.01,0,0-.014-.007,0-.014a.843.843,0,0,0,.089-.016c.028-.021-.075.021.007-.028a2.289,2.289,0,0,0,.362-.16c.178-.082-.056.075.089,0,.014-.026.026-.054.115-.1A.288.288,0,0,1,2.1,6.283l0-.028c.031-.014.047-.016.063-.047a.046.046,0,0,0,.026,0L2.2,6.2l.007,0,0,0a.14.14,0,0,1-.052.061l-.033.035-.016.021c.009-.016.023-.028.023-.023l.028,0,.019-.042c.007.007,0,.026,0,.037l-.019.031c-.012.019-.009,0,0,.073l.009-.031,0-.014,0-.007.012-.023c.009-.014.019-.026.023-.012L2.2,6.327l-.007.016-.012.028c0,.016.023-.063.016-.01-.014.031-.045.094-.061.122v0l-.059.207c.009-.04.021-.047.012-.007l-.049.131c.016-.04.014.007,0,.068-.04.176-.1.124-.106.267l.014-.042-.007.073c-.031,0-.061.1-.089.207s-.047.225-.075.232c.016.127,0,0,.061-.131a1.017,1.017,0,0,0,0,.12.706.706,0,0,1,.026-.136c0,.078-.016.15-.023.221a.841.841,0,0,0-.007.183c.012.033.019.016.028.016s.016.017.054.1c.061.115.054.11.028.1s-.056-.047-.009.026a.811.811,0,0,0,.1.063.719.719,0,0,0,.444.218.316.316,0,0,1,.063.017,1.3,1.3,0,0,0,.481-.056c-.031,0,.059-.042.068-.056.07-.021.138-.047.2-.073-.087.033-.089.016-.113.009.061-.026.092-.033.131-.049-.026.007-.054.014-.026-.009l.209-.07-.052.03a1.466,1.466,0,0,0,.225-.115H3.622a.187.187,0,0,1-.127.054c.136-.066.033-.021.092-.066.1-.047.143-.047.127-.021a1.151,1.151,0,0,1,.251-.129l-.033-.007.1-.049-.094.019c.181-.117.054.019.258-.113L4.19,7.691c.082-.037.127-.026.176-.082.084-.037-.117.1.068,0a1.768,1.768,0,0,1,.138-.113c.054-.023-.009.031-.052.059.251-.153.12-.155.366-.286-.073.066.092-.014-.1.115.1-.052.167-.145.272-.192l-.077.021a.541.541,0,0,1,.1-.054l-.019-.012c.136-.052.2-.167.3-.181-.068.007.087-.063.122-.108a1.1,1.1,0,0,0-.176.12c-.059.04-.108.073-.122.063.038-.04.087-.054.122-.094a.464.464,0,0,1-.1.045,1.917,1.917,0,0,1,.329-.214c-.052.04-.106.075-.157.113.033.016.073-.049.131-.061.063-.075.139-.1.193-.16l-.035.026a1.576,1.576,0,0,0,.23-.27c.059-.059.185-.15.153-.1.056-.038-.214.178-.1.132.056-.117.2-.153.359-.362-.094.068.026-.068-.054,0a.51.51,0,0,1,.148-.113l.014-.038a.847.847,0,0,0,.228-.178c-.063.056.047-.089,0-.049a1.192,1.192,0,0,1,.129-.134l-.007.007A1.046,1.046,0,0,0,6.9,5.4c.026-.04.056-.075.127-.164l0,.023a4.233,4.233,0,0,0,.514-.843l-.04.1a1.979,1.979,0,0,0,.127-.28.426.426,0,0,0-.031.063c-.009-.007-.009-.047.016-.117l.026-.021V4.135c.042-.106.007.04.049-.066a.9.9,0,0,1,.068-.275,1.181,1.181,0,0,0,.059-.3c.052-.066-.052.209,0,.134a.873.873,0,0,1,.019-.122l.012.028c.019-.085.028-.155.04-.221s.016-.122.021-.178l.019-.174.016-.2,0,.012a.629.629,0,0,1,.026-.214c-.009-.023-.016.054-.024.012.061-.19-.035-.38,0-.495-.016.007-.038-.04-.059-.082q-.007-.116-.021-.239A1.933,1.933,0,0,0,5.335.086l-.012,0-.016,0,0,0C5.2.126,5.1.157,5,.19c-.021,0-.038,0-.04,0C4.934.2,4.962.2,4.969.2L4.95.206,4.861.227l0,.009C4.729.281,4.6.331,4.469.382L4.516.361,4.542.345l-.085.04c-.108.045-.216.089-.322.136a.615.615,0,0,0-.082.019c-.174.092-.479.24-.6.317-.183.1-.359.209-.53.322-.031.007-.052.007-.059,0,.077-.037.228-.11.237-.146a1.216,1.216,0,0,1-.216.1c-.056.073.136-.08.056,0a.529.529,0,0,1-.1.049c.04-.012-.033.045-.042.061-.077.056-.136.1-.2.153l-.092.075L2.4,1.558v0L2.3,1.647c-.063.028-.117.045-.106.019-.089.08-.085.094-.162.155.1-.127-.021.024-.054.014-.077.068-.016.035-.047.073l-.056.026c-.016.031.016.019.047.01s.045-.014.049,0l-.113.11,0-.007-.021.019.009,0-.1.11a.116.116,0,0,1-.026-.117C1.695,2.053,1.657,2.14,1.627,2.173ZM2.211,6.2c0,.009.014.014-.021.054C2.176,6.255,2.2,6.219,2.211,6.2ZM.134,6.219c.023.033.038.063.056.089A.2.2,0,0,1,.134,6.219Z" transform="translate(2.461 12.473)" fill="#934c51"/>
    <path id="Path_165" data-name="Path 165" d="M0,0A.029.029,0,0,0,.019,0C.028.012.026.016,0,0Z" transform="translate(2.752 18.951)" fill="#934c51"/>
    <path id="Path_166" data-name="Path 166" d="M0,0H.006L.011,0Z" transform="translate(4.996 20.883)" fill="#934c51"/>
    <path id="Path_167" data-name="Path 167" d="M.034,0A.219.219,0,0,0,0,.047S0,.031.034,0Z" transform="translate(4.332 14.36)" fill="#934c51"/>
    <path id="Path_168" data-name="Path 168" d="M0,.019.052,0C.026.019.028.026.014.04Z" transform="translate(5.88 13.275)" fill="#934c51"/>
    <path id="Path_169" data-name="Path 169" d="M.052.023C.067.023.17-.031.081.028.067.028-.074.1.052.023Z" transform="translate(5.556 13.412)" fill="#934c51"/>
    <path id="Path_170" data-name="Path 170" d="M.075.071C.023.136,0,.179,0,.13.066.007.04.115.1,0,.122-.018.049.094.075.071Z" transform="translate(3.259 15.552)" fill="#934c51"/>
    <path id="Path_171" data-name="Path 171" d="M0,.033.028,0Z" transform="translate(3.334 15.59)" fill="#934c51"/>
    <path id="Path_172" data-name="Path 172" d="M0,.023,0,.016.016,0Z" transform="translate(4.568 18.749)" fill="#934c51"/>
    <path id="Path_173" data-name="Path 173" d="M0,.02,0,0,.019.043Z" transform="translate(4.443 19.367)" fill="#934c51"/>
    <path id="Path_174" data-name="Path 174" d="M.042.167A.624.624,0,0,1,0,0C.012.118.077.167.042.167Z" transform="translate(4.249 20.288)" fill="#934c51"/>
    <path id="Path_175" data-name="Path 175" d="M0,0,.031.035Z" transform="translate(0.937 9.879)" fill="#934c51"/>
    <path id="Path_176" data-name="Path 176" d="M0,.012V0C.007.014.009.021,0,.012Z" transform="translate(0.703 9.628)" fill="#934c51"/>
    <path id="Path_177" data-name="Path 177" d="M0,.011A.609.609,0,0,1,.089,0Z" transform="translate(1.128 7.814)" fill="#934c51"/>
    <path id="Path_178" data-name="Path 178" d="M.01,0,.043.045C-.028,0,.01.012.01,0Z" transform="translate(2.322 11.083)" fill="#934c51"/>
    <path id="Path_179" data-name="Path 179" d="M0,.012.009,0Z" transform="translate(8.626 11.426)" fill="#934c51"/>
    <path id="Path_180" data-name="Path 180" d="M0,0H0C.014,0,.012,0,0,0Z" transform="translate(3.526 5.448)" fill="#934c51"/>
    <path id="Path_181" data-name="Path 181" d="M0,0H.009C.052.014.033.01,0,0Z" transform="translate(5.197 12.217)" fill="#934c51"/>
    <path id="Path_182" data-name="Path 182" d="M0,.005,0,0,0,.005Z" transform="translate(1.187 6.828)" fill="#934c51"/>
    <path id="Path_183" data-name="Path 183" d="M.077.145A.483.483,0,0,0,.042.063L0,0,.073.019A1.143,1.143,0,0,0,.077.145Z" transform="translate(1.191 6.835)" fill="#934c51"/>
    <path id="Path_184" data-name="Path 184" d="M4.395.248A.991.991,0,0,1,4.172.163c-.089.009.153.045.038.042A.694.694,0,0,1,4.1.168c.035.019-.056.012-.075.017C3.935.168,3.862.159,3.784.152L3.667.137,3.531.128h0L3.385.114C3.324.091,3.28.065,3.3.056c-.115-.014-.122,0-.223-.012.162-.021-.03,0-.047-.026-.1,0-.038.014-.084.021C2.932.037,2.89.027,2.888.02c-.056.019.085.047.063.07L2.8.1V.084l-.028,0L2.777.1c-.049,0-.1.007-.15.012A.108.108,0,0,1,2.684,0c-.009-.016-.1.026-.141.033-.124.042-.2,0-.305.035h.084A1.115,1.115,0,0,1,2.12.1c0,.009.089.031.042.052A1.4,1.4,0,0,1,1.9.18c-.07,0-.12,0-.117-.021.106-.021.2-.028.3-.042,0-.026-.214.023-.207-.007a1.672,1.672,0,0,0-.275.1c.033-.016.143-.049.106-.021-.117.045-.059.028-.131.07L1.7.239c.047,0,.1,0,.143,0l.038,0h0a1.333,1.333,0,0,0-.218.073H1.653a.638.638,0,0,0-.1.005l-.066,0c-.092.066-.026.089,0,.08a.728.728,0,0,1-.106.068A.636.636,0,0,1,1.3.508a.284.284,0,0,0-.073.054L1.184.607a.547.547,0,0,0-.035.066.573.573,0,0,1,.033-.08.72.72,0,0,0-.07.127C1.095.771,1.081.814,1.081.8c0,.049.026.094.04.049l-.04.091c-.009.033-.016.066-.026.1,0-.031.045-.012.052-.023a.211.211,0,0,1-.019.089c-.009.019-.023.023-.03,0l.026.084.019.042a.343.343,0,0,0,.056.1c.014.042-.042.012-.059-.019a.567.567,0,0,0,.087.195c-.035-.077-.014-.1.009-.1l.028,0c.016.033.035.066.054.1a1.28,1.28,0,0,0,.077.239.114.114,0,0,1,.012-.061,2.189,2.189,0,0,0,.4.472l-.019-.021c-.019-.037.1.075.141.134,0-.014-.016-.023-.035-.045a.278.278,0,0,1,.094.115.357.357,0,0,0,.033.059l.026.028.016.012.012.007-.04-.045L1.968,2.36c-.009-.019-.009-.026,0-.028.016.019.038.042.059.068l.028.03.019.023a.058.058,0,0,1-.016.042l-.023,0c0,.009,0,0,0,.007l0,0c-.009,0-.014,0-.007.016L2,2.518l-.042-.007-.12-.016c.019,0,.033.019-.038.019a1.338,1.338,0,0,1,.185.016.237.237,0,0,0,.054.007l.019,0,0-.014a.106.106,0,0,1,.026.03c.007.012.014.021.03,0,0,.014,0,.03-.014.037l-.045,0-.077-.009c-.052-.007-.1-.016-.143-.026l-.244-.059L1.358,2.5l-.009-.012-.04.031-.054-.012.014.012L1.21,2.511c-.009.016.033.033.075.052l.063-.016c.026.009.049.019.047.026H1.311l-.026-.009-.019,0,.023,0H1.25l.016,0c-.11-.021-.237-.04-.138-.064l-.134.024a1.4,1.4,0,0,0-.15-.014l-.066,0a.9.9,0,0,0-.12.009c-.009.014.047.009.012.026a.422.422,0,0,0-.221.087c-.063.042-.106.087-.129.084-.049.031-.063.035-.073.035s-.016,0-.047.021c0,0,.014,0,0,.016a.516.516,0,0,0-.08.066c-.016.04.066-.071.007.03a.641.641,0,0,0-.087.225.66.66,0,0,0,0,.2c.019.216-.054-.087-.028.094a.328.328,0,0,1,.077.155A.394.394,0,0,1,.09,3.63a.26.26,0,0,0,.04.1L.146,3.71c.038.049.059.07.077.091s.035.031.042.023a.452.452,0,0,0,.1.117c.075.106-.1-.033-.131-.049.1.082.148.155.223.185l-.07-.087c.185.152.127.193.244.235C.571,4.168.515,4.085.56,4.111l.07.1c.014,0-.042-.054,0-.019.019.028.056.089.073.117v0l.146.157c-.028-.028-.028-.042,0-.014l.089.11c-.026-.035.012-.011.061.031.136.12.061.146.183.223l-.031-.033.061.04c-.028.054.31.3.286.345.094.051.014,0-.068-.113l.094.059c-.033-.031-.063-.052-.1-.087a1.012,1.012,0,0,1,.258.251c.049.028-.007-.061.11.047.167.148-.059,0,.04.094l.1.038a2.138,2.138,0,0,0,.354.265.184.184,0,0,1,.042.038c.134.078.249.207.354.258-.019-.019.068.019.082.019.056.042.113.084.171.124-.077-.052-.066-.066-.07-.089.054.035.077.057.115.082-.021-.019-.042-.037-.007-.028l.178.131L3.1,6.226a1.165,1.165,0,0,0,.225.115L3.3,6.306a.168.168,0,0,1-.117-.073c.131.073.035.014.106.035.094.049.124.089.092.089a1.5,1.5,0,0,1,.254.124l-.012-.03.1.049-.073-.061c.207.071.021.054.249.134L3.9,6.554c.084.038.1.082.178.082.082.042-.155-.026.045.052.038,0,.117.021.176.035s-.056.007-.1-.009a.646.646,0,0,0,.251.049.549.549,0,0,1,.225.045c-.1-.01.07.058-.155,0,.1.04.218.023.326.073l-.068-.042a.623.623,0,0,1,.106.037l0-.021c.131.063.261.035.338.091-.054-.045.106.019.164.012-.115-.04-.333-.049-.343-.087.054,0,.1.026.153.024a.46.46,0,0,1-.1-.037,2.309,2.309,0,0,1,.383.082c-.063-.009-.127-.016-.19-.031.012.035.085.019.136.049.1-.007.171.026.251.019l-.045,0a1.5,1.5,0,0,0,.354-.042c.08,0,.235.007.181.023.066.007-.279,0-.16.037a.431.431,0,0,1,.2-.021,1.01,1.01,0,0,0,.305-.028c-.115,0,.063-.035-.038-.038a.618.618,0,0,1,.185,0L6.7,6.885c.082,0,.092.01.113.01a.618.618,0,0,0,.176-.016c-.084,0,.092-.045.026-.042A1.331,1.331,0,0,1,7.2,6.8H7.188a1.268,1.268,0,0,0,.214-.07c.045-.019.087-.035.195-.07l-.019.016A1.934,1.934,0,0,0,7.8,6.6a2.426,2.426,0,0,0,.228-.108c.077-.035.15-.08.225-.12s.143-.089.209-.134c-.028.026-.059.047-.087.07.012-.012.061-.035.11-.073a.807.807,0,0,0,.138-.122c-.014.014-.045.033-.059.047,0-.012.016-.045.068-.1l.031-.01.014-.03c.08-.085-.007.04.073-.045a1.457,1.457,0,0,1,.153-.246A1.26,1.26,0,0,0,9,5.571a.288.288,0,0,0,.038-.122c.03-.028.012.023-.009.073s-.049.094-.016.063c.012-.035.016-.049.042-.12l.009.031a2.247,2.247,0,0,0,.075-.216,1.494,1.494,0,0,0,.04-.181c.009-.056.021-.113.026-.173a1.708,1.708,0,0,0,.014-.207l0,.014a.886.886,0,0,1,0-.221c-.009-.021-.009.059-.021.016a.5.5,0,0,0-.037-.279.866.866,0,0,1-.075-.213c-.012.014-.047-.021-.077-.054a1.462,1.462,0,0,0-.113-.216A8.294,8.294,0,0,0,6.58,1.248l-.007-.007-.009,0c-.092-.063-.185-.122-.279-.181l-.019-.028c-.023-.009-.009.007,0,.014L6.24,1.03,6.174.978,6.167.985a6.171,6.171,0,0,0-.695-.35A.72.72,0,0,0,5.4.586C5.294.555,5.143.5,5.01.45,4.934.426,4.864.405,4.81.391A6.289,6.289,0,0,0,4.167.227C4.139.208,4.125.194,4.127.182,4.207.21,4.364.269,4.395.248ZM.367,3.945c.042.035.068.049.075.092C.419,4.029.386,3.973.367,3.945ZM1.505,2.532a.482.482,0,0,1-.1,0A.245.245,0,0,1,1.505,2.532Z" transform="translate(0 5.322)" fill="#934c51"/>
    <path id="Path_185" data-name="Path 185" d="M.022,0,.008.012C0,.009,0,0,.022,0Z" transform="translate(1.202 7.821)" fill="#934c51"/>
    <path id="Path_186" data-name="Path 186" d="M0,0,0,0l0,.006Z" transform="translate(2.324 11.074)" fill="#934c51"/>
    <path id="Path_187" data-name="Path 187" d="M.059,0A.192.192,0,0,0,0,.012S.012,0,.059,0Z" transform="translate(2.888 5.33)" fill="#934c51"/>
    <path id="Path_188" data-name="Path 188" d="M.1.042.068.033,0,0Z" transform="translate(5.777 6.098)" fill="#934c51"/>
    <path id="Path_189" data-name="Path 189" d="M0,0,.054.024A.124.124,0,0,0,0,.026Z" transform="translate(4.758 5.652)" fill="#934c51"/>
    <path id="Path_190" data-name="Path 190" d="M.062.013c.009.009.12.042.014.023C.067.026-.081-.023.062.013Z" transform="translate(4.412 5.543)" fill="#934c51"/>
    <path id="Path_191" data-name="Path 191" d="M0,.1C.053.046.063.044.074.044S.091.046.143,0C.175-.013.06.074.093.06.021.112-.008.154,0,.1Z" transform="translate(1.26 5.667)" fill="#934c51"/>
    <path id="Path_192" data-name="Path 192" d="M.042,0,0,.021Z" transform="translate(1.353 5.706)" fill="#934c51"/>
    <path id="Path_193" data-name="Path 193" d="M.059.049,0,.009V0C.014,0,.028.019.059.049Z" transform="translate(0.163 9.114)" fill="#934c51"/>
    <path id="Path_194" data-name="Path 194" d="M.015.014,0,0,.045.01Z" transform="translate(0.984 9.96)" fill="#934c51"/>
    <path id="Path_195" data-name="Path 195" d="M.1.085C.063.061.03.026,0,0,.063.061.127.068.1.085Z" transform="translate(1.627 10.585)" fill="#934c51"/>
    <path id="Path_196" data-name="Path 196" d="M.047.012,0,0Z" transform="translate(19.698 6.724)" fill="#934c51"/>
    <path id="Path_197" data-name="Path 197" d="M.008,0l0,.009C0,0-.006,0,.008,0Z" transform="translate(20.072 6.785)" fill="#934c51"/>
    <path id="Path_198" data-name="Path 198" d="M0,.064.063,0A.527.527,0,0,1,0,.064Z" transform="translate(20.768 8.499)" fill="#934c51"/>
    <path id="Path_199" data-name="Path 199" d="M.056.017,0,0C.087,0,.049.01.056.017Z" transform="translate(17.839 6.59)" fill="#934c51"/>
    <path id="Path_200" data-name="Path 200" d="M0,0V.014S0,.009,0,0Z" transform="translate(12.595 10.088)" fill="#934c51"/>
    <path id="Path_201" data-name="Path 201" d="M0,0l0,0C0,.012,0,.009,0,0Z" transform="translate(20.334 11.801)" fill="#934c51"/>
    <path id="Path_202" data-name="Path 202" d="M.033,0,.026.007C-.018.021,0,.014.033,0Z" transform="translate(14.858 7.386)" fill="#934c51"/>
    <path id="Path_203" data-name="Path 203" d="M0,0l0,0H0Z" transform="translate(21.2 9.302)" fill="#934c51"/>
    <path id="Path_204" data-name="Path 204" d="M0,0A.472.472,0,0,0,.084.033C.11.04.134.045.16.049L.094.087A.865.865,0,0,0,0,0Z" transform="translate(21.04 9.252)" fill="#934c51"/>
    <path id="Path_205" data-name="Path 205" d="M0,.007.021,0Z" transform="translate(15.785 6.94)" fill="#934c51"/>
    <path id="Path_206" data-name="Path 206" d="M9.083,4.215c.028-.038.056-.082.085-.124s.047-.091.068-.136c-.017.035-.08.134-.068.087A.292.292,0,0,0,9.219,3.9a.5.5,0,0,1-.08.1.7.7,0,0,1-.108.1L9,4.117a1.027,1.027,0,0,0,.122-.195l.012-.012c.049-.054.1-.1.115-.122.021-.113-.04-.082-.054-.059a2.051,2.051,0,0,1,.052-.209A.336.336,0,0,0,9.236,3.3a.5.5,0,0,1,.035.08.769.769,0,0,0-.042-.138c-.023-.049-.045-.087-.035-.08-.03-.038-.084-.049-.063-.007L9.1,3.056a.7.7,0,0,0-.049-.092c.016.026-.026.04-.024.054a.274.274,0,0,1-.047-.08c0-.021,0-.033.026-.019a1.02,1.02,0,0,0-.122-.063.427.427,0,0,0-.106-.033c-.04-.019.023-.04.054-.023a.48.48,0,0,0-.2-.084c.082.03.082.063.068.082l-.021.021a.709.709,0,0,0-.108-.035l-.054-.035c-.052-.028-.113-.061-.164-.084a.142.142,0,0,1,.031.054A.788.788,0,0,0,8.14,2.65c-.122-.023-.268-.052-.362-.068l.028.007c.019.009-.014.009-.059,0l-.073-.012-.042-.014.035.012a.088.088,0,0,1-.085-.028c-.012-.016,0-.028-.068-.023.066.009.061.023.042.033-.026-.009-.077-.019-.108-.028a.159.159,0,0,1,.1-.042c.007-.014.038-.033,0-.035l.068-.035a.951.951,0,0,0,.084-.052c-.016.007-.035.007.019-.037-.026.021-.054.04-.08.059l-.031.019-.026.014c-.035.019-.07.042-.063.056a.193.193,0,0,1-.047-.007.153.153,0,0,0-.07.019c.054-.037.106-.07.148-.1l.061-.035.061-.033.225-.113.169-.157.016,0L8.1,2.009l.047-.023s0,0-.016,0l.049-.03c0-.019-.045-.007-.089.007l-.04.052A.113.113,0,0,1,8,2.025l.073-.056.019-.007L8.1,1.946l-.009,0,.014-.009,0,0c.1-.052.211-.11.148-.035l.094-.1c.07-.037.1-.054.131-.073a1.805,1.805,0,0,0,.148-.108c0-.014-.045.017-.023-.014a.409.409,0,0,0,.145-.195c.031-.075.033-.138.052-.153a.267.267,0,0,1,.028-.08c.007-.007.014-.009.021-.052,0,0-.012.012-.012-.012a.742.742,0,0,0,.009-.1c-.014-.035,0,.089-.028-.014A.709.709,0,0,0,8.762.791.539.539,0,0,0,8.644.612C8.569.53,8.59.542,8.619.554S8.677.584,8.6.519A.37.37,0,0,1,8.443.451L8.4.406a.269.269,0,0,0-.08-.054l0,.028C8.229.342,8.161.319,8.154.338A.437.437,0,0,0,8,.293c-.129-.042.108-.035.143-.03a.986.986,0,0,0-.3-.023l.113.028c-.246-.012-.221-.08-.34-.042.082.012.176.045.127.049L7.623.239c-.014,0,.068.016.012.016C7.6.244,7.537.22,7.506.206l0,0C7.438.194,7.368.181,7.295.171c.042,0,.049.014.009.01L7.166.148c.042.012,0,.014-.068.009C6.917.143,6.961.08,6.816.089L6.861.1,6.788.1c0-.028-.113-.04-.221-.052S6.354.028,6.347,0c-.106.014-.007.012.124.049L6.358.056c.045.007.082,0,.131.014A1.194,1.194,0,0,1,6.128.026c-.054,0,.042.045-.115.028C5.79.035,6.058.012,5.924,0l-.1.026a2.018,2.018,0,0,0-.446,0A.429.429,0,0,1,5.321.023C5.168.037,5,.009,4.88.026c.028,0-.066.026-.077.035-.07,0-.141,0-.211,0,.094,0,.091.014.11.03-.066,0-.1,0-.143,0,.028,0,.056,0,.023.016H4.359L4.417.1a1.168,1.168,0,0,0-.251.04l.045.014A.182.182,0,0,1,4.347.141c-.15.023-.035.012-.106.035-.106.017-.153,0-.129-.016a1.369,1.369,0,0,1-.279.047l.028.019c-.038,0-.075.009-.113.017l.1.009C3.636.312,3.8.22,3.563.288l0,.019C3.476.324,3.436.3,3.373.345c-.092.012.141-.07-.066-.016C3.274.347,3.2.378,3.143.4s.014-.026.063-.044c-.282.091-.155.119-.425.2C2.868.509,2.69.551,2.908.467,2.8.5,2.713.57,2.6.6L2.678.594C2.64.61,2.594.622,2.572.629l.016.014a.623.623,0,0,0-.183.073A.307.307,0,0,1,2.26.772c.07,0-.1.045-.139.089.113-.037.3-.16.326-.138C2.4.756,2.354.765,2.312.8a.649.649,0,0,1,.1-.028.86.86,0,0,1-.2.1,1.383,1.383,0,0,0-.157.066C2.112.9,2.169.868,2.227.842,2.2.819,2.148.88,2.089.885c-.075.068-.155.082-.214.136L1.913,1a1.236,1.236,0,0,0-.258.249c-.063.052-.195.136-.16.089-.061.033.228-.164.106-.124-.066.112-.211.138-.38.347.094-.068-.028.068.054,0a.57.57,0,0,1-.15.113l-.014.037A.869.869,0,0,0,.882,1.9c.063-.056-.045.092,0,.049a.816.816,0,0,1-.124.139l.007,0a1.234,1.234,0,0,0-.127.186,1.881,1.881,0,0,1-.117.173l0-.023q-.067.092-.134.2c-.04.073-.08.148-.12.223a4.989,4.989,0,0,0-.2.465A.975.975,0,0,1,.1,3.19c0,.016-.031.068-.047.127A.617.617,0,0,0,.019,3.5l.016-.073c.009,0,.016.047.007.122l-.019.028.007.03C.021,3.724.009,3.57,0,3.687a.339.339,0,0,1,.016.11c0,.052,0,.118.009.181a.777.777,0,0,0,.066.305c-.019.085-.047-.216-.059-.125a1.023,1.023,0,0,1,.038.122L.045,4.26c.021.087.049.157.07.221l.077.169L.279,4.8l.115.174,0-.012a.685.685,0,0,1,.134.176c.023.01-.03-.049.007-.023a.53.53,0,0,0,.207.19l.108.063a.255.255,0,0,1,.085.059c0-.019.052-.01.1,0,.07.035.143.071.221.1A8.311,8.311,0,0,0,4.8,6.163h.007c.061,0,.122-.009.181-.016l.03.012c.023-.007.007-.009,0-.014l.049,0,.061,0v0c.117-.014.237-.03.354-.052l-.019.007.04-.01c.136-.023.27-.054.4-.087a.422.422,0,0,0,.073,0c.056-.019.122-.035.192-.056l.209-.073L6.562,5.8l.059-.026c.193-.073.385-.157.575-.249.028,0,.047,0,.052.01a.825.825,0,0,0-.253.117,1.382,1.382,0,0,1,.228-.073c.066-.066-.145.063-.054-.01a.594.594,0,0,1,.106-.037c-.04.007.04-.042.052-.056l.117-.058.1-.063c.063-.042.129-.084.218-.139h0l.115-.07c.066-.023.12-.035.108-.012.1-.063.1-.08.183-.129-.117.112.023-.021.054-.007.087-.056.021-.033.056-.063l.063-.019c.019-.028-.014-.021-.047-.017s-.047.007-.049,0l.028-.019c.033-.023.063-.049.1-.075l.007.01L8.4,4.79l-.012,0c.04-.033.077-.066.115-.1a.114.114,0,0,1,.016.12c.019.007.063-.08.094-.115.073-.11.155-.129.221-.218l-.068.052A1.065,1.065,0,0,1,8.9,4.375c0-.007-.089.033-.066-.012a1.271,1.271,0,0,1,.183-.186c.054-.047.1-.075.106-.061-.035.042-.07.082-.1.115l-.108.108C8.931,4.363,9.069,4.19,9.083,4.215ZM7.938,2.124a.658.658,0,0,1,.077-.066A.227.227,0,0,1,7.938,2.124ZM8,.293c-.056,0-.087,0-.117-.028C7.9.256,7.966.281,8,.293Z" transform="translate(12.579 6.588)" fill="#934c51"/>
    <path id="Path_207" data-name="Path 207" d="M0,.019,0,0C.014,0,.016,0,0,.019Z" transform="translate(20.759 8.541)" fill="#934c51"/>
    <path id="Path_208" data-name="Path 208" d="M.01,0H.005L0,0Z" transform="translate(17.896 6.608)" fill="#934c51"/>
    <path id="Path_209" data-name="Path 209" d="M0,.042A.22.22,0,0,0,.042,0S.038.016,0,.042Z" transform="translate(20.876 11.503)" fill="#934c51"/>
    <path id="Path_210" data-name="Path 210" d="M.054.023,0,.035A.159.159,0,0,0,.04,0Z" transform="translate(19.177 12.376)" fill="#934c51"/>
    <path id="Path_211" data-name="Path 211" d="M.067.027C.053.025-.057.063.039.018.053.02.2-.029.067.027Z" transform="translate(19.452 12.272)" fill="#934c51"/>
    <path id="Path_212" data-name="Path 212" d="M0,.111a.788.788,0,0,0,.012-.1c0-.019.007-.021.023,0a.229.229,0,0,1,0,.073L.023.109C.016.116.012.121.009.191,0,.224.012.076,0,.111Z" transform="translate(21.862 10.108)" fill="#934c51"/>
    <path id="Path_213" data-name="Path 213" d="M.012,0,0,.047Z" transform="translate(21.85 10.219)" fill="#934c51"/>
    <path id="Path_214" data-name="Path 214" d="M.075.01l0,.009A.266.266,0,0,1,0,0Z" transform="translate(20.766 6.889)" fill="#934c51"/>
    <path id="Path_215" data-name="Path 215" d="M.021,0,.042,0,0,.022Z" transform="translate(19.616 6.695)" fill="#934c51"/>
    <path id="Path_216" data-name="Path 216" d="M0,0c.04,0,.089.009.131.009C.042,0-.012.03,0,0Z" transform="translate(18.63 6.574)" fill="#934c51"/>
  </g>
</svg>
